<svg width="32" height="32" viewBox="0 0 32 32" fill="none" xmlns="http://www.w3.org/2000/svg">
<path d="M16.2663 23.1734C15.333 23.1734 14.3863 22.8134 13.6797 22.1067C12.9863 21.4134 12.5997 20.4934 12.5997 19.5201C12.5997 18.5468 12.9863 17.6134 13.6797 16.9334L15.5596 15.0534C15.9463 14.6667 16.5863 14.6667 16.973 15.0534C17.3596 15.4401 17.3596 16.0801 16.973 16.4667L15.093 18.3467C14.773 18.6667 14.5997 19.0801 14.5997 19.5201C14.5997 19.9601 14.773 20.3867 15.093 20.6934C15.7463 21.3467 16.7997 21.3467 17.453 20.6934L20.413 17.7334C22.1063 16.04 22.1063 13.2934 20.413 11.6001C18.7197 9.90675 15.973 9.90675 14.2797 11.6001L11.053 14.8267C10.373 15.5067 9.99965 16.4001 9.99965 17.3467C9.99965 18.2934 10.373 19.2001 11.053 19.8667C11.4396 20.2534 11.4396 20.8934 11.053 21.2801C10.6663 21.6667 10.0263 21.6667 9.63963 21.2801C8.58629 20.2267 8.013 18.8267 8.013 17.3334C8.013 15.8401 8.58629 14.4401 9.63963 13.3867L12.8664 10.1601C15.333 7.69339 19.3596 7.69339 21.8263 10.1601C24.293 12.6267 24.293 16.6534 21.8263 19.1201L18.8664 22.0801C18.1464 22.8134 17.213 23.1734 16.2663 23.1734Z" fill="#338A56"/>
<path d="M20 30.3332H12C4.76002 30.3332 1.66669 27.2398 1.66669 19.9998V11.9998C1.66669 4.75984 4.76002 1.6665 12 1.6665H20C27.24 1.6665 30.3334 4.75984 30.3334 11.9998V19.9998C30.3334 27.2398 27.24 30.3332 20 30.3332ZM12 3.6665C5.85335 3.6665 3.66669 5.85317 3.66669 11.9998V19.9998C3.66669 26.1465 5.85335 28.3332 12 28.3332H20C26.1467 28.3332 28.3334 26.1465 28.3334 19.9998V11.9998C28.3334 5.85317 26.1467 3.6665 20 3.6665H12Z" fill="#338A56"/>
</svg>
