<svg width="35" height="35" viewBox="0 0 35 35" fill="none" xmlns="http://www.w3.org/2000/svg">
<path d="M17.5 33.1764C8.85204 33.1764 1.82288 26.1473 1.82288 17.4993C1.82288 8.85143 8.85204 1.82227 17.5 1.82227C26.1479 1.82227 33.177 8.85143 33.177 17.4993C33.177 26.1473 26.1479 33.1764 17.5 33.1764ZM17.5 4.00977C10.0625 4.00977 4.01038 10.0618 4.01038 17.4993C4.01038 24.9368 10.0625 30.9889 17.5 30.9889C24.9375 30.9889 30.9895 24.9368 30.9895 17.4993C30.9895 10.0618 24.9375 4.00977 17.5 4.00977Z" fill="#787F8A"/>
<path d="M23.3333 18.5938H11.6666C11.0687 18.5938 10.5729 18.0979 10.5729 17.5C10.5729 16.9021 11.0687 16.4062 11.6666 16.4062H23.3333C23.9312 16.4062 24.427 16.9021 24.427 17.5C24.427 18.0979 23.9312 18.5938 23.3333 18.5938Z" fill="#787F8A"/>
<path d="M17.5 24.4264C16.9021 24.4264 16.4062 23.9306 16.4062 23.3327V11.666C16.4062 11.0681 16.9021 10.5723 17.5 10.5723C18.0979 10.5723 18.5938 11.0681 18.5938 11.666V23.3327C18.5938 23.9306 18.0979 24.4264 17.5 24.4264Z" fill="#787F8A"/>
</svg>
