<svg width="20" height="20" viewBox="0 0 20 20" fill="none" xmlns="http://www.w3.org/2000/svg">
<path d="M1.04183 9.99967C1.04183 14.9413 5.0585 18.958 10.0002 18.958C14.9418 18.958 18.9585 14.9413 18.9585 9.99967C18.9585 5.05801 14.9418 1.04134 10.0002 1.04134C5.05849 1.04134 1.04183 5.05801 1.04183 9.99967ZM17.7085 9.99967C17.7085 14.2497 14.2502 17.708 10.0002 17.708C5.75016 17.708 2.29183 14.2497 2.29183 9.99967C2.29183 5.74967 5.75016 2.29134 10.0002 2.29134C14.2502 2.29134 17.7085 5.74967 17.7085 9.99967Z" fill="#7D67BD"/>
<path d="M6.4332 11.0499C6.4332 11.2083 6.49154 11.3666 6.61654 11.4916C6.8582 11.7333 7.2582 11.7333 7.49987 11.4916L9.99987 8.9916L12.4999 11.4916C12.7415 11.7333 13.1415 11.7333 13.3832 11.4916C13.6249 11.2499 13.6249 10.8499 13.3832 10.6083L10.4415 7.6666C10.1999 7.42493 9.79987 7.42493 9.5582 7.6666L6.61654 10.6083C6.49154 10.7333 6.4332 10.8916 6.4332 11.0499Z" fill="#7D67BD"/>
</svg>
