<svg width="20" height="20" viewBox="0 0 20 20" fill="none" xmlns="http://www.w3.org/2000/svg">
<path d="M1.04158 10.0003C1.04158 5.05866 5.05825 1.04199 9.99992 1.04199C14.9416 1.04199 18.9583 5.05866 18.9583 10.0003C18.9583 14.942 14.9416 18.9587 9.99992 18.9587C5.05825 18.9587 1.04158 14.942 1.04158 10.0003ZM17.7083 10.0003C17.7083 5.75033 14.2499 2.29199 9.99992 2.29199C5.74992 2.29199 2.29158 5.75032 2.29158 10.0003C2.29158 14.2503 5.74992 17.7087 9.99992 17.7087C14.2499 17.7087 17.7083 14.2503 17.7083 10.0003Z" fill="#7D67BD"/>
<path d="M6.43345 8.95006C6.43345 8.79173 6.49178 8.6334 6.61678 8.5084C6.85845 8.26673 7.25845 8.26673 7.50011 8.5084L10.0001 11.0084L12.5001 8.5084C12.7418 8.26673 13.1418 8.26673 13.3834 8.5084C13.6251 8.75007 13.6251 9.15007 13.3834 9.39173L10.4418 12.3334C10.2001 12.5751 9.80011 12.5751 9.55845 12.3334L6.61678 9.39173C6.49178 9.26673 6.43345 9.1084 6.43345 8.95006Z" fill="#7D67BD"/>
</svg>
