<svg width="32" height="32" viewBox="0 0 32 32" fill="none" xmlns="http://www.w3.org/2000/svg">
<circle cx="16" cy="16" r="16" fill="#5C41AD"/>
<path d="M19.4933 23.1673H12.5066C10.64 23.1673 9.45329 22.054 9.34662 20.194L8.99995 14.694C8.94662 13.8607 9.23329 13.0607 9.80662 12.454C10.3733 11.8473 11.1733 11.5007 12 11.5007C12.2133 11.5007 12.42 11.374 12.52 11.174L13 10.2207C13.3933 9.44065 14.38 8.83398 15.24 8.83398H16.7666C17.6266 8.83398 18.6066 9.44065 19 10.214L19.48 11.1873C19.58 11.374 19.78 11.5007 20 11.5007C20.8266 11.5007 21.6266 11.8473 22.1933 12.454C22.7666 13.0673 23.0533 13.8607 23 14.694L22.6533 20.2007C22.5333 22.0873 21.38 23.1673 19.4933 23.1673ZM15.24 9.83398C14.7466 9.83398 14.12 10.2207 13.8933 10.6673L13.4133 11.6273C13.1333 12.1673 12.5933 12.5007 12 12.5007C11.44 12.5007 10.92 12.7273 10.5333 13.134C10.1533 13.5407 9.95995 14.074 9.99995 14.6273L10.3466 20.134C10.4266 21.4807 11.1533 22.1673 12.5066 22.1673H19.4933C20.84 22.1673 21.5666 21.4807 21.6533 20.134L22 14.6273C22.0333 14.074 21.8466 13.5407 21.4666 13.134C21.08 12.7273 20.56 12.5007 20 12.5007C19.4066 12.5007 18.8666 12.1673 18.5866 11.6407L18.1 10.6673C17.88 10.2273 17.2533 9.84065 16.76 9.84065H15.24V9.83398Z" fill="#DED9EF"/>
<path d="M17 13.834H15C14.7267 13.834 14.5 13.6073 14.5 13.334C14.5 13.0607 14.7267 12.834 15 12.834H17C17.2733 12.834 17.5 13.0607 17.5 13.334C17.5 13.6073 17.2733 13.834 17 13.834Z" fill="#DED9EF"/>
<path d="M15.9999 20.4993C14.5266 20.4993 13.3333 19.306 13.3333 17.8327C13.3333 16.3593 14.5266 15.166 15.9999 15.166C17.4733 15.166 18.6666 16.3593 18.6666 17.8327C18.6666 19.306 17.4733 20.4993 15.9999 20.4993ZM15.9999 16.166C15.0799 16.166 14.3333 16.9127 14.3333 17.8327C14.3333 18.7527 15.0799 19.4993 15.9999 19.4993C16.9199 19.4993 17.6666 18.7527 17.6666 17.8327C17.6666 16.9127 16.9199 16.166 15.9999 16.166Z" fill="#DED9EF"/>
</svg>
