<svg width="32" height="32" viewBox="0 0 32 32" fill="none" xmlns="http://www.w3.org/2000/svg">
<circle cx="16" cy="16" r="15.5" fill="#FEF4F4" stroke="#FAD4D4"/>
<path d="M21.833 15.3019H9.16629C8.98421 15.3019 8.81796 15.2227 8.70712 15.0802C8.59629 14.9457 8.54879 14.7557 8.58837 14.5815L9.48296 10.3065C9.77587 8.92107 10.3696 7.64648 12.7209 7.64648H18.2863C20.6375 7.64648 21.2313 8.92898 21.5242 10.3065L22.4188 14.5894C22.4584 14.7636 22.4109 14.9457 22.3 15.0882C22.1813 15.2227 22.015 15.3019 21.833 15.3019ZM9.89462 14.1144H21.0967L20.3525 10.5519C20.1309 9.51482 19.8696 8.83398 18.2784 8.83398H12.7209C11.1296 8.83398 10.8684 9.51482 10.6467 10.5519L9.89462 14.1144Z" fill="#957979"/>
<path d="M21.8013 24.0111H20.313C19.0305 24.0111 18.7851 23.2748 18.6268 22.7919L18.4684 22.3169C18.2626 21.7152 18.2388 21.6361 17.5263 21.6361H13.473C12.7605 21.6361 12.713 21.7707 12.5309 22.3169L12.3726 22.7919C12.2063 23.2827 11.9688 24.0111 10.6863 24.0111H9.19801C8.5726 24.0111 7.97093 23.7498 7.55135 23.2907C7.13968 22.8394 6.94176 22.2377 6.99718 21.6361L7.44051 16.8148C7.55926 15.5086 7.9076 14.1152 10.4488 14.1152H20.5505C23.0918 14.1152 23.4322 15.5086 23.5588 16.8148L24.0022 21.6361C24.0576 22.2377 23.8597 22.8394 23.448 23.2907C23.0284 23.7498 22.4268 24.0111 21.8013 24.0111ZM13.473 20.4486H17.5263C18.9672 20.4486 19.3076 21.0898 19.5926 21.929L19.7588 22.4198C19.8934 22.8236 19.8934 22.8315 20.3209 22.8315H21.8093C22.1022 22.8315 22.3793 22.7127 22.5772 22.499C22.7672 22.2932 22.8543 22.0319 22.8305 21.7548L22.3872 16.9336C22.2843 15.8648 22.1576 15.3107 20.5663 15.3107H10.4488C8.84968 15.3107 8.72301 15.8648 8.62801 16.9336L8.18468 21.7548C8.16093 22.0319 8.24801 22.2932 8.43801 22.499C8.62801 22.7127 8.91301 22.8315 9.20593 22.8315H10.6943C11.1218 22.8315 11.1218 22.8236 11.2563 22.4277L11.4147 21.9448C11.6126 21.3115 11.9055 20.4486 13.473 20.4486Z" fill="#957979"/>
<path d="M9.1663 12.9277H8.37463C8.05005 12.9277 7.78088 12.6586 7.78088 12.334C7.78088 12.0094 8.05005 11.7402 8.37463 11.7402H9.1663C9.49088 11.7402 9.76005 12.0094 9.76005 12.334C9.76005 12.6586 9.49088 12.9277 9.1663 12.9277Z" fill="#957979"/>
<path d="M22.6247 12.9277H21.833C21.5084 12.9277 21.2393 12.6586 21.2393 12.334C21.2393 12.0094 21.5084 11.7402 21.833 11.7402H22.6247C22.9493 11.7402 23.2184 12.0094 23.2184 12.334C23.2184 12.6586 22.9493 12.9277 22.6247 12.9277Z" fill="#957979"/>
<path d="M15.4996 10.5521C15.1751 10.5521 14.9059 10.2829 14.9059 9.95833V8.375C14.9059 8.05042 15.1751 7.78125 15.4996 7.78125C15.8242 7.78125 16.0934 8.05042 16.0934 8.375V9.95833C16.0934 10.2829 15.8242 10.5521 15.4996 10.5521Z" fill="#957979"/>
<path d="M16.6871 10.5527H14.3121C13.9876 10.5527 13.7184 10.2836 13.7184 9.95898C13.7184 9.6344 13.9876 9.36523 14.3121 9.36523H16.6871C17.0117 9.36523 17.2809 9.6344 17.2809 9.95898C17.2809 10.2836 17.0117 10.5527 16.6871 10.5527Z" fill="#957979"/>
<path d="M13.1246 18.4688H10.7496C10.4251 18.4688 10.1559 18.1996 10.1559 17.875C10.1559 17.5504 10.4251 17.2812 10.7496 17.2812H13.1246C13.4492 17.2812 13.7184 17.5504 13.7184 17.875C13.7184 18.1996 13.4492 18.4688 13.1246 18.4688Z" fill="#957979"/>
<path d="M20.2496 18.4688H17.8746C17.5501 18.4688 17.2809 18.1996 17.2809 17.875C17.2809 17.5504 17.5501 17.2812 17.8746 17.2812H20.2496C20.5742 17.2812 20.8434 17.5504 20.8434 17.875C20.8434 18.1996 20.5742 18.4688 20.2496 18.4688Z" fill="#957979"/>
</svg>
