<svg width="24" height="24" viewBox="0 0 24 24" fill="none" xmlns="http://www.w3.org/2000/svg">
<path d="M9.16986 15.5804C8.97986 15.5804 8.78986 15.5104 8.63986 15.3604C8.34986 15.0704 8.34986 14.5904 8.63986 14.3004L14.2999 8.64035C14.5899 8.35035 15.0699 8.35035 15.3599 8.64035C15.6499 8.93035 15.6499 9.41035 15.3599 9.70035L9.69986 15.3604C9.55986 15.5104 9.35986 15.5804 9.16986 15.5804Z" fill="#BA2026"/>
<path d="M14.8299 15.0804C14.7653 15.0804 14.7047 15.0581 14.6534 15.0068L8.99342 9.3468C8.89868 9.25206 8.89868 9.08864 8.99342 8.9939C9.08815 8.89917 9.25157 8.89917 9.34631 8.9939L15.0063 14.6539C15.101 14.7486 15.101 14.9121 15.0063 15.0068C14.955 15.0581 14.8944 15.0804 14.8299 15.0804Z" fill="#292D32" stroke="#BA2026"/>
<path d="M15 22.75H9C3.57 22.75 1.25 20.43 1.25 15V9C1.25 3.57 3.57 1.25 9 1.25H15C20.43 1.25 22.75 3.57 22.75 9V15C22.75 20.43 20.43 22.75 15 22.75ZM9 2.75C4.39 2.75 2.75 4.39 2.75 9V15C2.75 19.61 4.39 21.25 9 21.25H15C19.61 21.25 21.25 19.61 21.25 15V9C21.25 4.39 19.61 2.75 15 2.75H9Z" fill="#BA2026"/>
</svg>
