<svg width="42" height="42" viewBox="0 0 42 42" fill="none" xmlns="http://www.w3.org/2000/svg">
<circle cx="21" cy="21" r="20.5962" fill="white" stroke="#D2D4D8" stroke-width="0.807692"/>
<path d="M15.8888 27.4676C15.5456 27.4676 15.2024 27.3411 14.9315 27.0702C14.4076 26.5463 14.4076 25.6793 14.9315 25.1554L25.1554 14.9315C25.6793 14.4076 26.5463 14.4076 27.0702 14.9315C27.594 15.4553 27.594 16.3224 27.0702 16.8462L16.8462 27.0702C16.5933 27.3411 16.232 27.4676 15.8888 27.4676Z" fill="#4B5463"/>
<path d="M26.1128 27.4676C25.7696 27.4676 25.4264 27.3411 25.1554 27.0702L14.9315 16.8462C14.4076 16.3224 14.4076 15.4553 14.9315 14.9315C15.4553 14.4076 16.3224 14.4076 16.8462 14.9315L27.0702 25.1554C27.594 25.6793 27.594 26.5463 27.0702 27.0702C26.7992 27.3411 26.456 27.4676 26.1128 27.4676Z" fill="#4B5463"/>
</svg>
