<svg width="32" height="32" viewBox="0 0 32 32" fill="none" xmlns="http://www.w3.org/2000/svg">
<circle cx="16" cy="16" r="15.5" fill="#FEF4F4" stroke="#FAD4D4"/>
<path d="M19.4584 22.4264H12.7292C12.4046 22.4264 12.1355 22.1573 12.1355 21.8327C12.1355 21.5081 12.4046 21.2389 12.7292 21.2389H19.4584C21.7225 21.2389 22.823 20.1385 22.823 17.8743V13.1243C22.823 10.8602 21.7225 9.75977 19.4584 9.75977H11.5417C9.27754 9.75977 8.17712 10.8602 8.17712 13.1243V18.0327C8.17712 18.3573 7.90796 18.6264 7.58337 18.6264C7.25879 18.6264 6.98962 18.3573 6.98962 18.0327V13.1243C6.98962 10.2348 8.65212 8.57227 11.5417 8.57227H19.4584C22.348 8.57227 24.0105 10.2348 24.0105 13.1243V17.8743C24.0105 20.7639 22.348 22.4264 19.4584 22.4264Z" fill="#957979"/>
<path d="M15.5 18.0736C14.083 18.0736 12.9271 16.9177 12.9271 15.5007C12.9271 14.0836 14.083 12.9277 15.5 12.9277C16.9171 12.9277 18.073 14.0836 18.073 15.5007C18.073 16.9177 16.9171 18.0736 15.5 18.0736ZM15.5 14.1152C14.74 14.1152 14.1146 14.7407 14.1146 15.5007C14.1146 16.2607 14.74 16.8861 15.5 16.8861C16.26 16.8861 16.8855 16.2607 16.8855 15.5007C16.8855 14.7407 16.26 14.1152 15.5 14.1152Z" fill="#957979"/>
<path d="M20.6459 18.0736C20.3213 18.0736 20.0521 17.8044 20.0521 17.4798V13.5215C20.0521 13.1969 20.3213 12.9277 20.6459 12.9277C20.9705 12.9277 21.2396 13.1969 21.2396 13.5215V17.4798C21.2396 17.8044 20.9705 18.0736 20.6459 18.0736Z" fill="#957979"/>
<path d="M9.95829 24.0111C8.64413 24.0111 7.40913 23.3144 6.74413 22.1823C6.38788 21.6123 6.19788 20.9394 6.19788 20.2507C6.19788 18.1765 7.88413 16.4902 9.95829 16.4902C12.0325 16.4902 13.7187 18.1765 13.7187 20.2507C13.7187 20.9394 13.5287 21.6123 13.1725 22.1902C12.5075 23.3144 11.2725 24.0111 9.95829 24.0111ZM9.95829 17.6777C8.54121 17.6777 7.38538 18.8336 7.38538 20.2507C7.38538 20.7177 7.51202 21.1769 7.75744 21.5727C8.2166 22.3486 9.06371 22.8236 9.95829 22.8236C10.8529 22.8236 11.7 22.3486 12.1591 21.5806C12.4046 21.1769 12.5312 20.7257 12.5312 20.2507C12.5312 18.8336 11.3754 17.6777 9.95829 17.6777Z" fill="#957979"/>
<path d="M7.78125 23.0202C7.63083 23.0202 7.48039 22.9648 7.36164 22.846C7.13206 22.6165 7.13206 22.2364 7.36164 22.0068L11.7158 17.6527C11.9454 17.4231 12.3254 17.4231 12.555 17.6527C12.7846 17.8822 12.7846 18.2623 12.555 18.4919L8.20085 22.846C8.0821 22.9648 7.93166 23.0202 7.78125 23.0202Z" fill="#957979"/>
</svg>
