<svg width="21" height="20" viewBox="0 0 21 20" fill="none" xmlns="http://www.w3.org/2000/svg">
<path d="M20.5 14.19C20.5 17.83 18.33 20 14.69 20H13.5C12.95 20 12.5 19.55 12.5 19V13.23C12.5 12.96 12.72 12.73 12.99 12.73L14.75 12.7C14.89 12.69 15.01 12.59 15.04 12.45L15.39 10.54C15.42 10.36 15.28 10.19 15.09 10.19L12.96 10.22C12.68 10.22 12.46 10 12.45 9.73L12.41 7.28C12.41 7.12 12.54 6.98001 12.71 6.98001L15.11 6.94C15.28 6.94 15.41 6.81001 15.41 6.64001L15.37 4.23999C15.37 4.06999 15.24 3.94 15.07 3.94L12.37 3.98001C10.71 4.01001 9.39 5.37 9.42 7.03L9.47 9.78C9.48 10.06 9.26 10.28 8.98 10.29L7.78 10.31C7.61 10.31 7.48001 10.44 7.48001 10.61L7.51001 12.51C7.51001 12.68 7.64 12.81 7.81 12.81L9.01 12.79C9.29 12.79 9.51 13.01 9.52 13.28L9.61 18.98C9.62 19.54 9.17 20 8.61 20H6.31C2.67 20 0.5 17.83 0.5 14.18V5.81C0.5 2.17 2.67 0 6.31 0H14.69C18.33 0 20.5 2.17 20.5 5.81V14.19Z" fill="#3B5998"/>
</svg>
