<svg width="20" height="20" viewBox="0 0 20 20" fill="none" xmlns="http://www.w3.org/2000/svg">
<path d="M9.11671 18.875C8.71671 18.875 8.32504 18.775 7.95837 18.575C7.22504 18.1667 6.78337 17.425 6.78337 16.5917V12.175C6.78337 11.7583 6.50837 11.1333 6.25004 10.8167L3.13337 7.51667C2.60837 6.99167 2.20837 6.09167 2.20837 5.41667V3.5C2.20837 2.16667 3.21671 1.125 4.50004 1.125H15.5C16.7667 1.125 17.7917 2.15 17.7917 3.41667V5.25C17.7917 6.125 17.2667 7.11667 16.775 7.60833L13.1667 10.8C12.8167 11.0917 12.5417 11.7333 12.5417 12.25V15.8333C12.5417 16.575 12.075 17.4333 11.4917 17.7833L10.3417 18.525C9.96671 18.7583 9.54171 18.875 9.11671 18.875ZM4.50004 2.375C3.91671 2.375 3.45837 2.86667 3.45837 3.5V5.41667C3.45837 5.725 3.70837 6.325 4.02504 6.64167L7.20004 9.98333C7.62504 10.5083 8.04171 11.3833 8.04171 12.1667V16.5833C8.04171 17.125 8.41671 17.3917 8.57504 17.475C8.92504 17.6667 9.35004 17.6667 9.67504 17.4667L10.8334 16.725C11.0667 16.5833 11.3 16.1333 11.3 15.8333V12.25C11.3 11.3583 11.7334 10.375 12.3584 9.85L15.925 6.69167C16.2084 6.40833 16.55 5.73333 16.55 5.24167V3.41667C16.55 2.84167 16.0834 2.375 15.5084 2.375H4.50004Z" fill="#5C41AD"/>
<path d="M5.00006 8.95839C4.88339 8.95839 4.77506 8.92506 4.66672 8.86672C4.37506 8.68339 4.28339 8.29172 4.46672 8.00006L8.57506 1.41672C8.75839 1.12506 9.14172 1.03339 9.43339 1.21672C9.72506 1.40006 9.81672 1.78339 9.63339 2.07506L5.52506 8.65839C5.40839 8.85006 5.20839 8.95839 5.00006 8.95839Z" fill="#5C41AD"/>
</svg>
