<svg width="36" height="36" viewBox="0 0 36 36" fill="none" xmlns="http://www.w3.org/2000/svg">
<rect x="0.666626" y="0.666992" width="34.6667" height="34.6667" rx="6" fill="#EEEBF6"/>
<path d="M17.1167 26.875C16.7167 26.875 16.325 26.775 15.9584 26.575C15.225 26.1667 14.7834 25.425 14.7834 24.5917V20.175C14.7834 19.7583 14.5084 19.1333 14.25 18.8167L11.1334 15.5167C10.6084 14.9917 10.2084 14.0917 10.2084 13.4167V11.5C10.2084 10.1667 11.2167 9.125 12.5 9.125H23.5C24.7667 9.125 25.7917 10.15 25.7917 11.4167V13.25C25.7917 14.125 25.2667 15.1167 24.775 15.6083L21.1667 18.8C20.8167 19.0917 20.5417 19.7333 20.5417 20.25V23.8333C20.5417 24.575 20.075 25.4333 19.4917 25.7833L18.3417 26.525C17.9667 26.7583 17.5417 26.875 17.1167 26.875ZM12.5 10.375C11.9167 10.375 11.4584 10.8667 11.4584 11.5V13.4167C11.4584 13.725 11.7084 14.325 12.025 14.6417L15.2 17.9833C15.625 18.5083 16.0417 19.3833 16.0417 20.1667V24.5833C16.0417 25.125 16.4167 25.3917 16.575 25.475C16.925 25.6667 17.35 25.6667 17.675 25.4667L18.8334 24.725C19.0667 24.5833 19.3 24.1333 19.3 23.8333V20.25C19.3 19.3583 19.7334 18.375 20.3584 17.85L23.925 14.6917C24.2084 14.4083 24.55 13.7333 24.55 13.2417V11.4167C24.55 10.8417 24.0834 10.375 23.5084 10.375H12.5Z" fill="#5C41AD"/>
<path d="M13.0001 16.9584C12.8834 16.9584 12.7751 16.9251 12.6667 16.8667C12.3751 16.6834 12.2834 16.2917 12.4667 16.0001L16.5751 9.41672C16.7584 9.12506 17.1417 9.03339 17.4334 9.21672C17.7251 9.40006 17.8167 9.78339 17.6334 10.0751L13.5251 16.6584C13.4084 16.8501 13.2084 16.9584 13.0001 16.9584Z" fill="#5C41AD"/>
</svg>
