<svg width="60" height="60" viewBox="0 0 60 60" fill="none" xmlns="http://www.w3.org/2000/svg">
<path d="M29.9997 0.000514006C22.0433 0.000514006 14.4129 3.16108 8.78662 8.78714C3.16056 14.4132 0 22.0442 0 30.0003C0 37.9563 3.16056 45.5871 8.78662 51.2134C14.4127 56.8394 22.0437 60 29.9997 60C37.9558 60 45.5865 56.8394 51.2129 51.2134C56.8389 45.5873 59.9995 37.9563 59.9995 30.0003C59.9995 24.7343 58.6134 19.5608 55.9806 14.9997C53.3474 10.4394 49.5599 6.65207 44.9997 4.01891C40.4389 1.38614 35.2654 0 29.9992 0L29.9997 0.000514006ZM41.1297 26.1302L29.1298 38.1301C28.5663 38.6982 27.7994 39.0176 26.9999 39.0176C26.1998 39.0176 25.4329 38.6982 24.87 38.1301L18.8698 32.1299C18.1089 31.369 17.8116 30.2596 18.0903 29.2205C18.3685 28.1808 19.1807 27.3688 20.2202 27.0905C21.2593 26.8118 22.3688 27.1091 23.1297 27.87L27 31.7699L36.8699 21.8698C37.6308 21.1089 38.7403 20.8116 39.7794 21.0903C40.819 21.3691 41.6311 22.1807 41.9093 23.2203C42.1881 24.2599 41.8907 25.3688 41.1298 26.1297L41.1297 26.1302Z" fill="#319F5A"/>
</svg>
