<svg width="40" height="40" viewBox="0 0 40 40" fill="none" xmlns="http://www.w3.org/2000/svg">
<circle cx="20" cy="20" r="20" fill="#FEF4F4"/>
<path d="M13.57 30.7008C11.23 30.7008 9.24995 28.7208 9.24995 26.3808V20.2208C9.19995 17.3008 10.28 14.5508 12.3 12.4908C14.32 10.4408 17.03 9.30078 19.95 9.30078C25.91 9.30078 30.75 14.1508 30.75 20.1008V26.2608C30.75 28.6408 28.81 30.5808 26.43 30.5808C24.09 30.5808 22.11 28.6008 22.11 26.2608V23.4508C22.11 22.0008 23.25 20.8608 24.7 20.8608C26.15 20.8608 27.29 22.0008 27.29 23.4508V26.4808C27.29 26.8908 26.95 27.2308 26.54 27.2308C26.13 27.2308 25.79 26.8908 25.79 26.4808V23.4508C25.79 22.7708 25.24 22.3608 24.7 22.3608C24.02 22.3608 23.61 22.9108 23.61 23.4508V26.2608C23.61 27.7908 24.9 29.0808 26.43 29.0808C27.96 29.0808 29.25 27.7908 29.25 26.2608V20.1008C29.25 14.9708 25.08 10.8008 19.95 10.8008C17.44 10.8008 15.11 11.7708 13.37 13.5408C11.63 15.3108 10.7 17.6808 10.75 20.2008V26.3808C10.75 27.9108 12.04 29.2008 13.57 29.2008C15.1 29.2008 16.39 27.9108 16.39 26.3808V23.5708C16.39 22.8908 15.84 22.4808 15.3 22.4808C14.62 22.4808 14.21 23.0308 14.21 23.5708V26.4908C14.21 26.9008 13.87 27.2408 13.46 27.2408C13.05 27.2408 12.71 26.9008 12.71 26.4908V23.5708C12.71 22.1208 13.85 20.9808 15.3 20.9808C16.75 20.9808 17.89 22.1208 17.89 23.5708V26.3808C17.89 28.7208 15.91 30.7008 13.57 30.7008Z" fill="#957979"/>
</svg>
