<svg width="16" height="16" viewBox="0 0 16 16" fill="none" xmlns="http://www.w3.org/2000/svg">
<path d="M10.6667 15.1663H5.33333C2.9 15.1663 1.5 13.7663 1.5 11.333V4.66634C1.5 2.23301 2.9 0.833008 5.33333 0.833008H10.6667C13.1 0.833008 14.5 2.23301 14.5 4.66634V11.333C14.5 13.7663 13.1 15.1663 10.6667 15.1663ZM5.33333 1.83301C3.42667 1.83301 2.5 2.75967 2.5 4.66634V11.333C2.5 13.2397 3.42667 14.1663 5.33333 14.1663H10.6667C12.5733 14.1663 13.5 13.2397 13.5 11.333V4.66634C13.5 2.75967 12.5733 1.83301 10.6667 1.83301H5.33333Z" fill="#182130"/>
<path d="M12.3334 6.16667H11C9.98669 6.16667 9.16669 5.34667 9.16669 4.33333V3C9.16669 2.72667 9.39335 2.5 9.66669 2.5C9.94002 2.5 10.1667 2.72667 10.1667 3V4.33333C10.1667 4.79333 10.54 5.16667 11 5.16667H12.3334C12.6067 5.16667 12.8334 5.39333 12.8334 5.66667C12.8334 5.94 12.6067 6.16667 12.3334 6.16667Z" fill="#182130"/>
<path d="M7.99998 9.16699H5.33331C5.05998 9.16699 4.83331 8.94033 4.83331 8.66699C4.83331 8.39366 5.05998 8.16699 5.33331 8.16699H7.99998C8.27331 8.16699 8.49998 8.39366 8.49998 8.66699C8.49998 8.94033 8.27331 9.16699 7.99998 9.16699Z" fill="#182130"/>
<path d="M10.6666 11.833H5.33331C5.05998 11.833 4.83331 11.6063 4.83331 11.333C4.83331 11.0597 5.05998 10.833 5.33331 10.833H10.6666C10.94 10.833 11.1666 11.0597 11.1666 11.333C11.1666 11.6063 10.94 11.833 10.6666 11.833Z" fill="#182130"/>
</svg>
