<svg width="24" height="25" viewBox="0 0 24 25" fill="none" xmlns="http://www.w3.org/2000/svg">
<path d="M12 23.084C6.07 23.084 1.25 18.264 1.25 12.334C1.25 6.40398 6.07 1.58398 12 1.58398C17.93 1.58398 22.75 6.40398 22.75 12.334C22.75 18.264 17.93 23.084 12 23.084ZM12 3.08398C6.9 3.08398 2.75 7.23398 2.75 12.334C2.75 17.434 6.9 21.584 12 21.584C17.1 21.584 21.25 17.434 21.25 12.334C21.25 7.23398 17.1 3.08398 12 3.08398Z" fill="#F6A214"/>
<path d="M12 14.084C11.59 14.084 11.25 13.744 11.25 13.334V8.33398C11.25 7.92398 11.59 7.58398 12 7.58398C12.41 7.58398 12.75 7.92398 12.75 8.33398V13.334C12.75 13.744 12.41 14.084 12 14.084Z" fill="#F6A214"/>
<path d="M12 17.3348C11.87 17.3348 11.74 17.3048 11.62 17.2548C11.5 17.2048 11.39 17.1348 11.29 17.0448C11.2 16.9448 11.13 16.8448 11.08 16.7148C11.03 16.5948 11 16.4648 11 16.3348C11 16.2048 11.03 16.0748 11.08 15.9548C11.13 15.8348 11.2 15.7248 11.29 15.6248C11.39 15.5348 11.5 15.4648 11.62 15.4148C11.86 15.3148 12.14 15.3148 12.38 15.4148C12.5 15.4648 12.61 15.5348 12.71 15.6248C12.8 15.7248 12.87 15.8348 12.92 15.9548C12.97 16.0748 13 16.2048 13 16.3348C13 16.4648 12.97 16.5948 12.92 16.7148C12.87 16.8448 12.8 16.9448 12.71 17.0448C12.61 17.1348 12.5 17.2048 12.38 17.2548C12.26 17.3048 12.13 17.3348 12 17.3348Z" fill="#F6A214"/>
</svg>
