<svg width="50" height="50" viewBox="0 0 50 50" fill="none" xmlns="http://www.w3.org/2000/svg">
<g clip-path="url(#clip0_683_14342)">
<path d="M42.5922 8.47803L39.2913 11.7791C41.0275 13.5152 42.4047 15.5763 43.3443 17.8447C44.284 20.1131 44.7676 22.5444 44.7676 24.9997C44.7677 27.455 44.2841 29.8863 43.3445 32.1547C42.4049 34.4231 41.0277 36.4843 39.2916 38.2204L42.5925 41.5213C44.7621 39.3517 46.4832 36.7759 47.6574 33.9411C48.8316 31.1063 49.4359 28.068 49.4359 24.9996C49.4359 21.9313 48.8315 18.8929 47.6572 16.0582C46.483 13.2234 44.7619 10.6476 42.5922 8.47803Z" fill="#F6A214"/>
<path d="M3.84732 28.2835C5.66066 28.2835 7.13067 26.8135 7.13067 25.0001C7.13067 23.1868 5.66066 21.7168 3.84732 21.7168C2.03397 21.7168 0.563965 23.1868 0.563965 25.0001C0.563965 26.8135 2.03397 28.2835 3.84732 28.2835Z" fill="#F6A214"/>
<path d="M12.3288 12.4506C13.611 11.1684 13.611 9.08945 12.3288 7.80723C11.0466 6.525 8.96768 6.525 7.68545 7.80723C6.40322 9.08945 6.40322 11.1684 7.68545 12.4506C8.96768 13.7328 11.0466 13.7328 12.3288 12.4506Z" fill="#F6A214"/>
<path d="M24.8781 7.25273C26.6914 7.25273 28.1614 5.78273 28.1614 3.96938C28.1614 2.15604 26.6914 0.686035 24.8781 0.686035C23.0647 0.686035 21.5947 2.15604 21.5947 3.96938C21.5947 5.78273 23.0647 7.25273 24.8781 7.25273Z" fill="#F6A214"/>
<path d="M24.8781 49.3143C26.6914 49.3143 28.1614 47.8443 28.1614 46.0309C28.1614 44.2176 26.6914 42.7476 24.8781 42.7476C23.0647 42.7476 21.5947 44.2176 21.5947 46.0309C21.5947 47.8443 23.0647 49.3143 24.8781 49.3143Z" fill="#F6A214"/>
<path d="M12.3288 42.1928C13.611 40.9105 13.611 38.8316 12.3288 37.5494C11.0466 36.2672 8.96768 36.2672 7.68545 37.5494C6.40322 38.8316 6.40322 40.9105 7.68545 42.1928C8.96768 43.475 11.0466 43.475 12.3288 42.1928Z" fill="#F6A214"/>
</g>
<defs>
<clipPath id="clip0_683_14342">
<rect width="50" height="50" fill="white"/>
</clipPath>
</defs>
</svg>
