<svg width="32" height="32" viewBox="0 0 32 32" fill="none" xmlns="http://www.w3.org/2000/svg">
<circle cx="16" cy="16" r="15.5" fill="#FEF4F4" stroke="#FAD4D4"/>
<path d="M16.016 22.8247C14.152 22.8247 12.288 22.5287 10.52 21.9367C9.84797 21.7047 9.33597 21.2327 9.11197 20.6167C8.87997 20.0007 8.95997 19.3207 9.32797 18.7127L10.248 17.1847C10.44 16.8647 10.616 16.2247 10.616 15.8487V13.5367C10.616 10.5607 13.04 8.13672 16.016 8.13672C18.992 8.13672 21.416 10.5607 21.416 13.5367V15.8487C21.416 16.2167 21.592 16.8647 21.784 17.1927L22.696 18.7127C23.04 19.2887 23.104 19.9847 22.872 20.6167C22.64 21.2487 22.136 21.7287 21.504 21.9367C19.744 22.5287 17.88 22.8247 16.016 22.8247ZM16.016 9.33672C13.704 9.33672 11.816 11.2167 11.816 13.5367V15.8487C11.816 16.4327 11.576 17.2967 11.28 17.8007L10.36 19.3287C10.184 19.6247 10.136 19.9367 10.24 20.2007C10.336 20.4727 10.576 20.6807 10.904 20.7927C14.248 21.9127 17.792 21.9127 21.136 20.7927C21.424 20.6967 21.648 20.4807 21.752 20.1927C21.856 19.9047 21.832 19.5927 21.672 19.3287L20.752 17.8007C20.448 17.2807 20.216 16.4247 20.216 15.8407V13.5367C20.216 11.2167 18.336 9.33672 16.016 9.33672Z" fill="#957979"/>
<path d="M17.504 9.55175C17.448 9.55175 17.392 9.54375 17.336 9.52775C17.104 9.46375 16.88 9.41575 16.664 9.38375C15.984 9.29575 15.328 9.34375 14.712 9.52775C14.488 9.59975 14.248 9.52775 14.096 9.35975C13.944 9.19175 13.896 8.95175 13.984 8.73575C14.312 7.89575 15.112 7.34375 16.024 7.34375C16.936 7.34375 17.736 7.88775 18.064 8.73575C18.144 8.95175 18.104 9.19175 17.952 9.35975C17.832 9.48775 17.664 9.55175 17.504 9.55175Z" fill="#957979"/>
<path d="M16.016 24.6484C15.224 24.6484 14.456 24.3284 13.896 23.7684C13.336 23.2084 13.016 22.4404 13.016 21.6484H14.216C14.216 22.1204 14.408 22.5844 14.744 22.9204C15.08 23.2564 15.544 23.4484 16.016 23.4484C17.008 23.4484 17.816 22.6404 17.816 21.6484H19.016C19.016 23.3044 17.672 24.6484 16.016 24.6484Z" fill="#957979"/>
</svg>
