<svg width="40" height="40" viewBox="0 0 40 40" fill="none" xmlns="http://www.w3.org/2000/svg">
<circle cx="20" cy="20" r="20" fill="#FEF4F4"/>
<path d="M29 19.7501H11C10.04 19.7501 9.25 18.9601 9.25 18.0001V14.6801C9.25 14.0001 9.71998 13.3101 10.35 13.0601L19.35 9.46016C19.73 9.31016 20.27 9.31016 20.65 9.46016L29.65 13.0601C30.28 13.3101 30.75 14.0101 30.75 14.6801V18.0001C30.75 18.9601 29.96 19.7501 29 19.7501ZM20 10.8402C19.96 10.8402 19.92 10.8401 19.9 10.8501L10.91 14.4501C10.85 14.4801 10.75 14.6101 10.75 14.6801V18.0001C10.75 18.1401 10.86 18.2501 11 18.2501H29C29.14 18.2501 29.25 18.1401 29.25 18.0001V14.6801C29.25 14.6101 29.16 14.4801 29.09 14.4501L20.09 10.8501C20.07 10.8401 20.04 10.8402 20 10.8402Z" fill="#957979"/>
<path d="M30 30.75H10C9.59 30.75 9.25 30.41 9.25 30V27C9.25 26.04 10.04 25.25 11 25.25H29C29.96 25.25 30.75 26.04 30.75 27V30C30.75 30.41 30.41 30.75 30 30.75ZM10.75 29.25H29.25V27C29.25 26.86 29.14 26.75 29 26.75H11C10.86 26.75 10.75 26.86 10.75 27V29.25Z" fill="#957979"/>
<path d="M12 26.75C11.59 26.75 11.25 26.41 11.25 26V19C11.25 18.59 11.59 18.25 12 18.25C12.41 18.25 12.75 18.59 12.75 19V26C12.75 26.41 12.41 26.75 12 26.75Z" fill="#957979"/>
<path d="M16 26.75C15.59 26.75 15.25 26.41 15.25 26V19C15.25 18.59 15.59 18.25 16 18.25C16.41 18.25 16.75 18.59 16.75 19V26C16.75 26.41 16.41 26.75 16 26.75Z" fill="#957979"/>
<path d="M20 26.75C19.59 26.75 19.25 26.41 19.25 26V19C19.25 18.59 19.59 18.25 20 18.25C20.41 18.25 20.75 18.59 20.75 19V26C20.75 26.41 20.41 26.75 20 26.75Z" fill="#957979"/>
<path d="M24 26.75C23.59 26.75 23.25 26.41 23.25 26V19C23.25 18.59 23.59 18.25 24 18.25C24.41 18.25 24.75 18.59 24.75 19V26C24.75 26.41 24.41 26.75 24 26.75Z" fill="#957979"/>
<path d="M28 26.75C27.59 26.75 27.25 26.41 27.25 26V19C27.25 18.59 27.59 18.25 28 18.25C28.41 18.25 28.75 18.59 28.75 19V26C28.75 26.41 28.41 26.75 28 26.75Z" fill="#957979"/>
<path d="M31 30.75H9C8.59 30.75 8.25 30.41 8.25 30C8.25 29.59 8.59 29.25 9 29.25H31C31.41 29.25 31.75 29.59 31.75 30C31.75 30.41 31.41 30.75 31 30.75Z" fill="#957979"/>
<path d="M20 17.25C18.76 17.25 17.75 16.24 17.75 15C17.75 13.76 18.76 12.75 20 12.75C21.24 12.75 22.25 13.76 22.25 15C22.25 16.24 21.24 17.25 20 17.25ZM20 14.25C19.59 14.25 19.25 14.59 19.25 15C19.25 15.41 19.59 15.75 20 15.75C20.41 15.75 20.75 15.41 20.75 15C20.75 14.59 20.41 14.25 20 14.25Z" fill="#957979"/>
</svg>
