<svg width="24" height="25" viewBox="0 0 24 25" fill="none" xmlns="http://www.w3.org/2000/svg">
<path d="M8.56976 16.3541C8.37976 16.3541 8.18977 16.2841 8.03977 16.1341C7.74977 15.8441 7.74977 15.3641 8.03977 15.0741L14.5898 8.52414C14.8798 8.23414 15.3598 8.23414 15.6498 8.52414C15.9398 8.81414 15.9398 9.29414 15.6498 9.58414L9.09976 16.1341C8.94976 16.2841 8.75976 16.3541 8.56976 16.3541Z" fill="#5C41AD"/>
<path d="M8.98001 11.4444C7.89001 11.4444 7 10.5544 7 9.46439C7 8.37439 7.89001 7.48438 8.98001 7.48438C10.07 7.48438 10.96 8.37439 10.96 9.46439C10.96 10.5544 10.07 11.4444 8.98001 11.4444ZM8.98001 8.99438C8.72001 8.99438 8.5 9.2044 8.5 9.4744C8.5 9.7444 8.71001 9.95438 8.98001 9.95438C9.25001 9.95438 9.45999 9.7444 9.45999 9.4744C9.45999 9.2044 9.24001 8.99438 8.98001 8.99438Z" fill="#5C41AD"/>
<path d="M15.52 17.1739C14.43 17.1739 13.54 16.2838 13.54 15.1938C13.54 14.1038 14.43 13.2139 15.52 13.2139C16.61 13.2139 17.5 14.1038 17.5 15.1938C17.5 16.2838 16.61 17.1739 15.52 17.1739ZM15.52 14.7239C15.26 14.7239 15.04 14.9339 15.04 15.2039C15.04 15.4739 15.25 15.6839 15.52 15.6839C15.79 15.6839 16 15.4739 16 15.2039C16 14.9339 15.79 14.7239 15.52 14.7239Z" fill="#5C41AD"/>
<path d="M12 23.084C6.07 23.084 1.25 18.264 1.25 12.334C1.25 6.40398 6.07 1.58398 12 1.58398C17.93 1.58398 22.75 6.40398 22.75 12.334C22.75 18.264 17.93 23.084 12 23.084ZM12 3.08398C6.9 3.08398 2.75 7.23398 2.75 12.334C2.75 17.434 6.9 21.584 12 21.584C17.1 21.584 21.25 17.434 21.25 12.334C21.25 7.23398 17.1 3.08398 12 3.08398Z" fill="#5C41AD"/>
</svg>
