<svg width="18" height="18" viewBox="0 0 18 18" fill="none" xmlns="http://www.w3.org/2000/svg">
<path d="M14.4 15.752C14.688 15.752 14.936 15.688 15.144 15.56C15.368 15.432 15.552 15.248 15.696 15.008C15.84 14.768 15.944 14.472 16.008 14.12C16.088 13.752 16.128 13.336 16.128 12.872C16.128 12.408 16.088 12 16.008 11.648C15.944 11.28 15.84 10.976 15.696 10.736C15.552 10.48 15.368 10.296 15.144 10.184C14.936 10.056 14.688 9.992 14.4 9.992C14.112 9.992 13.856 10.056 13.632 10.184C13.424 10.312 13.248 10.496 13.104 10.736C12.96 10.976 12.848 11.28 12.768 11.648C12.704 12 12.672 12.408 12.672 12.872C12.672 13.336 12.712 13.752 12.792 14.12C12.872 14.472 12.984 14.768 13.128 15.008C13.272 15.248 13.448 15.432 13.656 15.56C13.88 15.688 14.128 15.752 14.4 15.752ZM4.224 7.496C4.512 7.496 4.76 7.432 4.968 7.304C5.192 7.176 5.376 6.992 5.52 6.752C5.664 6.512 5.768 6.216 5.832 5.864C5.912 5.496 5.952 5.08 5.952 4.616C5.952 4.152 5.912 3.744 5.832 3.392C5.768 3.024 5.664 2.72 5.52 2.48C5.376 2.224 5.192 2.04 4.968 1.928C4.76 1.8 4.512 1.736 4.224 1.736C3.936 1.736 3.68 1.8 3.456 1.928C3.248 2.056 3.072 2.24 2.928 2.48C2.784 2.72 2.672 3.024 2.592 3.392C2.528 3.744 2.496 4.152 2.496 4.616C2.496 5.08 2.536 5.496 2.616 5.864C2.696 6.216 2.808 6.512 2.952 6.752C3.096 6.992 3.272 7.176 3.48 7.304C3.704 7.432 3.952 7.496 4.224 7.496ZM4.32 17.288L12.672 0.199999H14.304L5.952 17.288H4.32ZM15.984 16.88C15.536 17.088 15.008 17.192 14.4 17.192C13.792 17.192 13.264 17.088 12.816 16.88C12.368 16.656 12 16.352 11.712 15.968C11.424 15.568 11.208 15.104 11.064 14.576C10.92 14.048 10.848 13.48 10.848 12.872C10.848 12.264 10.92 11.696 11.064 11.168C11.208 10.64 11.424 10.184 11.712 9.8C12 9.4 12.368 9.096 12.816 8.888C13.264 8.664 13.792 8.552 14.4 8.552C15.008 8.552 15.536 8.664 15.984 8.888C16.432 9.096 16.8 9.4 17.088 9.8C17.392 10.184 17.608 10.64 17.736 11.168C17.88 11.696 17.952 12.264 17.952 12.872C17.952 13.48 17.88 14.048 17.736 14.576C17.608 15.104 17.392 15.568 17.088 15.968C16.8 16.352 16.432 16.656 15.984 16.88ZM5.808 8.624C5.36 8.832 4.832 8.936 4.224 8.936C3.616 8.936 3.088 8.832 2.64 8.624C2.192 8.4 1.824 8.096 1.536 7.712C1.248 7.312 1.032 6.848 0.888 6.32C0.744 5.792 0.672 5.224 0.672 4.616C0.672 4.008 0.744 3.44 0.888 2.912C1.032 2.384 1.248 1.928 1.536 1.544C1.824 1.144 2.192 0.839999 2.64 0.631999C3.088 0.407999 3.616 0.295999 4.224 0.295999C4.832 0.295999 5.36 0.407999 5.808 0.631999C6.256 0.839999 6.624 1.144 6.912 1.544C7.216 1.928 7.432 2.384 7.56 2.912C7.704 3.44 7.776 4.008 7.776 4.616C7.776 5.224 7.704 5.792 7.56 6.32C7.432 6.848 7.216 7.312 6.912 7.712C6.624 8.096 6.256 8.4 5.808 8.624Z" fill="#4B5463"/>
</svg>
