<svg width="16" height="16" viewBox="0 0 16 16" fill="none" xmlns="http://www.w3.org/2000/svg">
<path d="M7.66671 14.4997C3.90004 14.4997 0.833374 11.433 0.833374 7.66634C0.833374 3.89967 3.90004 0.833008 7.66671 0.833008C11.4334 0.833008 14.5 3.89967 14.5 7.66634C14.5 11.433 11.4334 14.4997 7.66671 14.4997ZM7.66671 1.83301C4.44671 1.83301 1.83337 4.45301 1.83337 7.66634C1.83337 10.8797 4.44671 13.4997 7.66671 13.4997C10.8867 13.4997 13.5 10.8797 13.5 7.66634C13.5 4.45301 10.8867 1.83301 7.66671 1.83301Z" fill="#A5A9B1"/>
<path d="M14.6666 15.1666C14.54 15.1666 14.4133 15.12 14.3133 15.02L12.98 13.6866C12.7866 13.4933 12.7866 13.1733 12.98 12.98C13.1733 12.7866 13.4933 12.7866 13.6866 12.98L15.02 14.3133C15.2133 14.5066 15.2133 14.8266 15.02 15.02C14.92 15.12 14.7933 15.1666 14.6666 15.1666Z" fill="#A5A9B1"/>
</svg>
