<svg width="32" height="32" viewBox="0 0 32 32" fill="none" xmlns="http://www.w3.org/2000/svg">
<circle cx="16" cy="16" r="15.5" fill="#FEF4F4" stroke="#FAD4D4"/>
<path d="M20.4 14.6C20.072 14.6 19.8 14.328 19.8 14V12.4C19.8 9.88 19.088 8.2 15.6 8.2C12.112 8.2 11.4 9.88 11.4 12.4V14C11.4 14.328 11.128 14.6 10.8 14.6C10.472 14.6 10.2 14.328 10.2 14V12.4C10.2 10.08 10.76 7 15.6 7C20.44 7 21 10.08 21 12.4V14C21 14.328 20.728 14.6 20.4 14.6Z" fill="#957979"/>
<path d="M19.6 24.2004H11.6C8.072 24.2004 7 23.1284 7 19.6004V18.0004C7 14.4724 8.072 13.4004 11.6 13.4004H19.6C23.128 13.4004 24.2 14.4724 24.2 18.0004V19.6004C24.2 23.1284 23.128 24.2004 19.6 24.2004ZM11.6 14.6004C8.736 14.6004 8.2 15.1444 8.2 18.0004V19.6004C8.2 22.4564 8.736 23.0004 11.6 23.0004H19.6C22.464 23.0004 23 22.4564 23 19.6004V18.0004C23 15.1444 22.464 14.6004 19.6 14.6004H11.6Z" fill="#957979"/>
<path d="M12.4 19.5991C12.296 19.5991 12.192 19.5751 12.096 19.5351C11.992 19.4951 11.912 19.4391 11.832 19.3671C11.688 19.2151 11.6 19.0151 11.6 18.7991C11.6 18.6951 11.624 18.5911 11.664 18.4951C11.704 18.3911 11.76 18.3111 11.832 18.2311C11.912 18.1591 11.992 18.1031 12.096 18.0631C12.384 17.9351 12.744 18.0071 12.968 18.2311C13.04 18.3111 13.096 18.3991 13.136 18.4951C13.176 18.5911 13.2 18.6951 13.2 18.7991C13.2 19.0071 13.112 19.2151 12.968 19.3671C12.816 19.5111 12.608 19.5991 12.4 19.5991Z" fill="#957979"/>
<path d="M15.6 19.6007C15.392 19.6007 15.1841 19.5127 15.0321 19.3687C14.8881 19.2167 14.8 19.0167 14.8 18.8007C14.8 18.6967 14.816 18.5927 14.864 18.4967C14.904 18.4007 14.9601 18.3127 15.0321 18.2327C15.2161 18.0487 15.4961 17.9607 15.7521 18.0167C15.8081 18.0247 15.8561 18.0407 15.9041 18.0647C15.9521 18.0807 16 18.1047 16.048 18.1367C16.088 18.1607 16.128 18.2007 16.168 18.2327C16.24 18.3127 16.2961 18.4007 16.3361 18.4967C16.3761 18.5927 16.4 18.6967 16.4 18.8007C16.4 19.0167 16.312 19.2167 16.168 19.3687C16.128 19.4007 16.088 19.4327 16.048 19.4647C16 19.4967 15.9521 19.5207 15.9041 19.5367C15.8561 19.5607 15.8081 19.5767 15.7521 19.5847C15.7041 19.5927 15.648 19.6007 15.6 19.6007Z" fill="#292D32"/>
<path d="M18.8 19.6007C18.584 19.6007 18.384 19.5127 18.232 19.3687C18.16 19.2887 18.104 19.2007 18.064 19.1047C18.024 19.0087 18 18.9047 18 18.8007C18 18.5927 18.088 18.3847 18.232 18.2327C18.272 18.2007 18.312 18.1687 18.352 18.1367C18.4 18.1047 18.448 18.0807 18.496 18.0647C18.544 18.0407 18.592 18.0247 18.64 18.0167C18.904 17.9607 19.176 18.0487 19.368 18.2327C19.512 18.3847 19.6 18.5847 19.6 18.8007C19.6 18.9047 19.576 19.0087 19.536 19.1047C19.496 19.2087 19.44 19.2887 19.368 19.3687C19.216 19.5127 19.008 19.6007 18.8 19.6007Z" fill="#957979"/>
</svg>
