<svg width="16" height="16" viewBox="0 0 16 16" fill="none" xmlns="http://www.w3.org/2000/svg">
<path d="M5.99996 0.832682L9.99996 0.832682C13.62 0.832682 15.1666 2.37935 15.1666 5.99935L15.1666 9.99935C15.1666 13.6193 13.62 15.166 9.99996 15.166L5.99996 15.166C2.37996 15.166 0.833292 13.6194 0.833292 9.99935L0.833291 5.99935C0.833291 2.37935 2.37996 0.832683 5.99996 0.832682ZM9.99996 14.166C13.0733 14.166 14.1666 13.0727 14.1666 9.99935L14.1666 5.99935C14.1666 2.92601 13.0733 1.83268 9.99996 1.83268L5.99996 1.83268C2.92662 1.83268 1.83329 2.92602 1.83329 5.99935L1.83329 9.99935C1.83329 13.0727 2.92663 14.166 5.99996 14.166L9.99996 14.166Z" fill="#5C41AD"/>
<path d="M6.00008 9.15987C6.12675 9.15987 6.25341 9.20654 6.35341 9.30654L8.00008 10.9532L9.64675 9.30654C9.84008 9.1132 10.1601 9.1132 10.3534 9.30654C10.5467 9.49987 10.5467 9.81987 10.3534 10.0132L8.35341 12.0132C8.16008 12.2065 7.84008 12.2065 7.64675 12.0132L5.64675 10.0132C5.45341 9.81987 5.45341 9.49987 5.64675 9.30654C5.74675 9.20654 5.87341 9.15987 6.00008 9.15987Z" fill="#5C41AD"/>
<path d="M8 5.82682C8.27333 5.82682 8.5 6.05349 8.5 6.32682L8.5 11.6602C8.5 11.9335 8.27333 12.1602 8 12.1602C7.72667 12.1602 7.5 11.9335 7.5 11.6602L7.5 6.32682C7.5 6.04682 7.72667 5.82682 8 5.82682Z" fill="#5C41AD"/>
<path d="M8.00003 3.84591C9.4067 3.84591 10.82 4.07258 12.16 4.51924C12.42 4.60591 12.56 4.89257 12.4734 5.15257C12.3867 5.41257 12.1 5.55924 11.84 5.46591C9.36003 4.63924 6.63336 4.63924 4.15336 5.46591C3.89336 5.55257 3.6067 5.41257 3.52003 5.15257C3.43337 4.89257 3.57337 4.60591 3.83337 4.51924C5.18003 4.06591 6.59337 3.84591 8.00003 3.84591Z" fill="#5C41AD"/>
</svg>
