<svg width="32" height="32" viewBox="0 0 32 32" fill="none" xmlns="http://www.w3.org/2000/svg">
<circle cx="16" cy="16" r="15.5" fill="#FEF4F4" stroke="#FBDFDF"/>
<path d="M16 19.125C14.275 19.125 12.875 17.725 12.875 16C12.875 14.275 14.275 12.875 16 12.875C17.725 12.875 19.125 14.275 19.125 16C19.125 17.725 17.725 19.125 16 19.125ZM16 14.125C14.9667 14.125 14.125 14.9667 14.125 16C14.125 17.0333 14.9667 17.875 16 17.875C17.0333 17.875 17.875 17.0333 17.875 16C17.875 14.9667 17.0333 14.125 16 14.125Z" fill="#957979"/>
<path d="M18.675 24.4913C18.5 24.4913 18.325 24.4663 18.15 24.4246C17.6333 24.2829 17.2 23.9579 16.925 23.4996L16.825 23.3329C16.3333 22.4829 15.6583 22.4829 15.1666 23.3329L15.075 23.4913C14.8 23.9579 14.3666 24.2913 13.85 24.4246C13.325 24.5663 12.7833 24.4913 12.325 24.2163L10.8916 23.3913C10.3833 23.0996 10.0166 22.6246 9.85829 22.0496C9.70829 21.4746 9.78329 20.8829 10.075 20.3746C10.3166 19.9496 10.3833 19.5663 10.2416 19.3246C10.1 19.0829 9.74163 18.9413 9.24996 18.9413C8.03329 18.9413 7.04163 17.9496 7.04163 16.7329V15.2663C7.04163 14.0496 8.03329 13.0579 9.24996 13.0579C9.74163 13.0579 10.1 12.9163 10.2416 12.6746C10.3833 12.4329 10.325 12.0496 10.075 11.6246C9.78329 11.1163 9.70829 10.5163 9.85829 9.94959C10.0083 9.37459 10.375 8.89959 10.8916 8.60792L12.3333 7.78292C13.275 7.22459 14.5166 7.54959 15.0833 8.50792L15.1833 8.67459C15.675 9.52459 16.35 9.52459 16.8416 8.67459L16.9333 8.51625C17.5 7.54959 18.7416 7.22459 19.6916 7.79125L21.125 8.61625C21.6333 8.90792 22 9.38292 22.1583 9.95792C22.3083 10.5329 22.2333 11.1246 21.9416 11.6329C21.7 12.0579 21.6333 12.4413 21.775 12.6829C21.9166 12.9246 22.275 13.0663 22.7666 13.0663C23.9833 13.0663 24.975 14.0579 24.975 15.2746V16.7413C24.975 17.9579 23.9833 18.9496 22.7666 18.9496C22.275 18.9496 21.9166 19.0913 21.775 19.3329C21.6333 19.5746 21.6916 19.9579 21.9416 20.3829C22.2333 20.8913 22.3166 21.4913 22.1583 22.0579C22.0083 22.6329 21.6416 23.1079 21.125 23.3996L19.6833 24.2246C19.3666 24.3996 19.025 24.4913 18.675 24.4913ZM16 21.4079C16.7416 21.4079 17.4333 21.8746 17.9083 22.6996L18 22.8579C18.1 23.0329 18.2666 23.1579 18.4666 23.2079C18.6666 23.2579 18.8666 23.2329 19.0333 23.1329L20.475 22.2996C20.6916 22.1746 20.8583 21.9663 20.925 21.7163C20.9916 21.4663 20.9583 21.2079 20.8333 20.9913C20.3583 20.1746 20.3 19.3329 20.6666 18.6913C21.0333 18.0496 21.7916 17.6829 22.7416 17.6829C23.275 17.6829 23.7 17.2579 23.7 16.7246V15.2579C23.7 14.7329 23.275 14.2996 22.7416 14.2996C21.7916 14.2996 21.0333 13.9329 20.6666 13.2913C20.3 12.6496 20.3583 11.8079 20.8333 10.9913C20.9583 10.7746 20.9916 10.5163 20.925 10.2663C20.8583 10.0163 20.7 9.81625 20.4833 9.68292L19.0416 8.85792C18.6833 8.64125 18.2083 8.76625 17.9916 9.13292L17.9 9.29125C17.425 10.1163 16.7333 10.5829 15.9916 10.5829C15.25 10.5829 14.5583 10.1163 14.0833 9.29125L13.9916 9.12459C13.7833 8.77459 13.3166 8.64959 12.9583 8.85792L11.5166 9.69125C11.3 9.81625 11.1333 10.0246 11.0666 10.2746C11 10.5246 11.0333 10.7829 11.1583 10.9996C11.6333 11.8163 11.6916 12.6579 11.325 13.2996C10.9583 13.9413 10.2 14.3079 9.24996 14.3079C8.71663 14.3079 8.29163 14.7329 8.29163 15.2663V16.7329C8.29163 17.2579 8.71663 17.6913 9.24996 17.6913C10.2 17.6913 10.9583 18.0579 11.325 18.6996C11.6916 19.3413 11.6333 20.1829 11.1583 20.9996C11.0333 21.2163 11 21.4746 11.0666 21.7246C11.1333 21.9746 11.2916 22.1746 11.5083 22.3079L12.95 23.1329C13.125 23.2413 13.3333 23.2663 13.525 23.2163C13.725 23.1663 13.8916 23.0329 14 22.8579L14.0916 22.6996C14.5666 21.8829 15.2583 21.4079 16 21.4079Z" fill="#957979"/>
</svg>
