<svg width="32" height="32" viewBox="0 0 32 32" fill="none" xmlns="http://www.w3.org/2000/svg">
<circle cx="16" cy="16" r="15.5" fill="#FEF4F4" stroke="#FBDFDF"/>
<path d="M12.6666 24.5998C12.4333 24.5998 12.1916 24.5415 11.9749 24.4249C11.4999 24.1749 11.2083 23.6748 11.2083 23.1415V21.9582C8.69163 21.6999 7.04163 19.8498 7.04163 17.1998V12.1999C7.04163 9.3332 8.96663 7.4082 11.8333 7.4082H20.1666C23.0333 7.4082 24.9583 9.3332 24.9583 12.1999V17.1998C24.9583 20.0665 23.0333 21.9915 20.1666 21.9915H17.0249L13.4749 24.3582C13.2333 24.5166 12.95 24.5998 12.6666 24.5998ZM11.8333 8.64986C9.68329 8.64986 8.29163 10.0415 8.29163 12.1915V17.1916C8.29163 19.3416 9.68329 20.7332 11.8333 20.7332C12.175 20.7332 12.4583 21.0166 12.4583 21.3582V23.1332C12.4583 23.2416 12.525 23.2916 12.5666 23.3166C12.6083 23.3416 12.6916 23.3666 12.7833 23.3082L16.4916 20.8416C16.5916 20.7749 16.7166 20.7332 16.8416 20.7332H20.175C22.325 20.7332 23.7166 19.3416 23.7166 17.1916V12.1915C23.7166 10.0415 22.325 8.64986 20.175 8.64986H11.8333V8.64986Z" fill="#957979"/>
<path d="M15.9999 16.0918C15.6582 16.0918 15.3749 15.8085 15.3749 15.4668V15.2918C15.3749 14.3252 16.0832 13.8502 16.3499 13.6668C16.6582 13.4585 16.7582 13.3168 16.7582 13.1002C16.7582 12.6835 16.4166 12.3418 15.9999 12.3418C15.5832 12.3418 15.2416 12.6835 15.2416 13.1002C15.2416 13.4418 14.9582 13.7252 14.6166 13.7252C14.2749 13.7252 13.9916 13.4418 13.9916 13.1002C13.9916 11.9918 14.8916 11.0918 15.9999 11.0918C17.1082 11.0918 18.0082 11.9918 18.0082 13.1002C18.0082 14.0502 17.3082 14.5251 17.0499 14.7001C16.7249 14.9168 16.6249 15.0585 16.6249 15.2918V15.4668C16.6249 15.8168 16.3416 16.0918 15.9999 16.0918Z" fill="#957979"/>
<path d="M16 18.166C15.65 18.166 15.375 17.8827 15.375 17.541C15.375 17.1993 15.6583 16.916 16 16.916C16.3417 16.916 16.625 17.1993 16.625 17.541C16.625 17.8827 16.35 18.166 16 18.166Z" fill="#957979"/>
</svg>
