<svg width="32" height="32" viewBox="0 0 32 32" fill="none" xmlns="http://www.w3.org/2000/svg">
<circle cx="16" cy="16" r="15.5" fill="#FEF4F4" stroke="#FBDFDF"/>
<path d="M19.3333 24.9577H12.6667C9.625 24.9577 7.875 23.2077 7.875 20.166V11.8327C7.875 8.79102 9.625 7.04102 12.6667 7.04102H19.3333C22.375 7.04102 24.125 8.79102 24.125 11.8327V20.166C24.125 23.2077 22.375 24.9577 19.3333 24.9577ZM12.6667 8.29102C10.2833 8.29102 9.125 9.44935 9.125 11.8327V20.166C9.125 22.5493 10.2833 23.7077 12.6667 23.7077H19.3333C21.7167 23.7077 22.875 22.5493 22.875 20.166V11.8327C22.875 9.44935 21.7167 8.29102 19.3333 8.29102H12.6667Z" fill="#957979"/>
<path d="M21.4167 13.7083H19.75C18.4834 13.7083 17.4584 12.6833 17.4584 11.4167V9.75C17.4584 9.40833 17.7417 9.125 18.0834 9.125C18.425 9.125 18.7084 9.40833 18.7084 9.75V11.4167C18.7084 11.9917 19.175 12.4583 19.75 12.4583H21.4167C21.7584 12.4583 22.0417 12.7417 22.0417 13.0833C22.0417 13.425 21.7584 13.7083 21.4167 13.7083Z" fill="#957979"/>
<path d="M16 17.459H12.6666C12.325 17.459 12.0416 17.1757 12.0416 16.834C12.0416 16.4923 12.325 16.209 12.6666 16.209H16C16.3416 16.209 16.625 16.4923 16.625 16.834C16.625 17.1757 16.3416 17.459 16 17.459Z" fill="#957979"/>
<path d="M19.3333 20.791H12.6666C12.325 20.791 12.0416 20.5077 12.0416 20.166C12.0416 19.8243 12.325 19.541 12.6666 19.541H19.3333C19.675 19.541 19.9583 19.8243 19.9583 20.166C19.9583 20.5077 19.675 20.791 19.3333 20.791Z" fill="#957979"/>
</svg>
