<svg width="24" height="24" viewBox="0 0 24 24" fill="none" xmlns="http://www.w3.org/2000/svg">
<path d="M15 22.75H9C3.57 22.75 1.25 20.43 1.25 15V9C1.25 3.57 3.57 1.25 9 1.25H15C20.43 1.25 22.75 3.57 22.75 9V15C22.75 20.43 20.43 22.75 15 22.75ZM9 2.75C4.39 2.75 2.75 4.39 2.75 9V15C2.75 19.61 4.39 21.25 9 21.25H15C19.61 21.25 21.25 19.61 21.25 15V9C21.25 4.39 19.61 2.75 15 2.75H9Z" fill="#338A56"/>
<path d="M10.2264 14.1232L10.5799 14.4767L10.9335 14.1232L16.0735 8.98316C16.1682 8.88842 16.3317 8.88842 16.4264 8.98316C16.5211 9.0779 16.5211 9.24132 16.4264 9.33606L10.7564 15.0061C10.7091 15.0534 10.6458 15.0796 10.5799 15.0796C10.5141 15.0796 10.4508 15.0534 10.4035 15.0061L7.57349 12.1761C7.47876 12.0813 7.47876 11.9179 7.57349 11.8232C7.66823 11.7284 7.83165 11.7284 7.92639 11.8232L10.2264 14.1232Z" fill="#292D32" stroke="#338A56"/>
</svg>
