<svg width="24" height="24" viewBox="0 0 24 24" fill="none" xmlns="http://www.w3.org/2000/svg">
<path d="M12 12.75C8.83 12.75 6.25 10.17 6.25 7C6.25 3.83 8.83 1.25 12 1.25C15.17 1.25 17.75 3.83 17.75 7C17.75 10.17 15.17 12.75 12 12.75ZM12 2.75C9.66 2.75 7.75 4.66 7.75 7C7.75 9.34 9.66 11.25 12 11.25C14.34 11.25 16.25 9.34 16.25 7C16.25 4.66 14.34 2.75 12 2.75Z" fill="#4B5463"/>
<path d="M14.8248 15.1313L14.8248 15.1314L14.8276 15.1321C14.9581 15.168 15.0357 15.3005 14.9981 15.4374C14.9622 15.5677 14.8303 15.6453 14.6936 15.6082C13.8264 15.3651 12.9212 15.25 12.0002 15.25C7.51602 15.25 3.66016 18.1738 3.66016 22C3.66016 22.1339 3.54401 22.25 3.41016 22.25C3.2763 22.25 3.16016 22.1339 3.16016 22C3.16016 18.0893 7.03505 14.75 12.0002 14.75C12.9669 14.75 13.9112 14.8744 14.8248 15.1313Z" fill="#292D32" stroke="#4B5463"/>
<path d="M18 22.75C16.34 22.75 14.78 21.87 13.94 20.44C13.49 19.72 13.25 18.87 13.25 18C13.25 16.54 13.9 15.19 15.03 14.29C15.87 13.62 16.93 13.25 18 13.25C20.62 13.25 22.75 15.38 22.75 18C22.75 18.87 22.51 19.72 22.06 20.45C21.81 20.87 21.49 21.25 21.11 21.57C20.28 22.33 19.17 22.75 18 22.75ZM18 14.75C17.26 14.75 16.56 15 15.97 15.47C15.2 16.08 14.75 17.01 14.75 18C14.75 18.59 14.91 19.17 15.22 19.67C15.8 20.65 16.87 21.25 18 21.25C18.79 21.25 19.55 20.96 20.13 20.44C20.39 20.22 20.61 19.96 20.77 19.68C21.09 19.17 21.25 18.59 21.25 18C21.25 16.21 19.79 14.75 18 14.75Z" fill="#4B5463"/>
<path d="M17.4299 19.7396C17.2399 19.7396 17.0499 19.6696 16.8999 19.5196L15.9099 18.5296C15.6199 18.2396 15.6199 17.7595 15.9099 17.4695C16.1999 17.1795 16.6799 17.1795 16.9699 17.4695L17.4499 17.9496L19.0499 16.4695C19.3499 16.1895 19.8299 16.2096 20.1099 16.5096C20.3899 16.8096 20.3699 17.2896 20.0699 17.5696L17.9399 19.5396C17.7899 19.6696 17.6099 19.7396 17.4299 19.7396Z" fill="#292D32"/>
</svg>
