<svg width="399" height="121" viewBox="0 0 399 121" fill="none" xmlns="http://www.w3.org/2000/svg">
<g clip-path="url(#clip0_731_18618)">
<mask id="path-1-inside-1_731_18618" fill="white">
<path d="M43.934 -56.066C68.4729 -80.6049 100.761 -95.8762 135.297 -99.2777C169.834 -102.679 204.481 -94.0006 233.335 -74.7205C262.19 -55.4404 283.467 -26.7518 293.541 6.45719C303.615 39.6662 301.862 75.3407 288.582 107.402C275.302 139.464 251.315 165.929 220.71 182.288C190.104 198.647 154.773 203.888 120.737 197.118C86.7002 190.348 56.0642 171.985 34.0486 145.159C12.033 118.333 6.53639e-05 84.7036 2.66056e-10 50.0003L46.1641 50.0002C46.1641 74.0232 54.4938 97.3029 69.7339 115.873C84.9739 134.443 106.181 147.154 129.743 151.841C153.304 156.527 177.762 152.899 198.948 141.575C220.134 130.251 236.739 111.931 245.932 89.7362C255.125 67.5418 256.338 42.8465 249.365 19.8579C242.391 -3.13061 227.662 -22.99 207.688 -36.3364C187.714 -49.6829 163.73 -55.6906 139.822 -53.3359C115.915 -50.9813 93.5637 -40.4099 76.5769 -23.4231L43.934 -56.066Z"/>
</mask>
<path d="M43.934 -56.066C68.4729 -80.6049 100.761 -95.8762 135.297 -99.2777C169.834 -102.679 204.481 -94.0006 233.335 -74.7205C262.19 -55.4404 283.467 -26.7518 293.541 6.45719C303.615 39.6662 301.862 75.3407 288.582 107.402C275.302 139.464 251.315 165.929 220.71 182.288C190.104 198.647 154.773 203.888 120.737 197.118C86.7002 190.348 56.0642 171.985 34.0486 145.159C12.033 118.333 6.53639e-05 84.7036 2.66056e-10 50.0003L46.1641 50.0002C46.1641 74.0232 54.4938 97.3029 69.7339 115.873C84.9739 134.443 106.181 147.154 129.743 151.841C153.304 156.527 177.762 152.899 198.948 141.575C220.134 130.251 236.739 111.931 245.932 89.7362C255.125 67.5418 256.338 42.8465 249.365 19.8579C242.391 -3.13061 227.662 -22.99 207.688 -36.3364C187.714 -49.6829 163.73 -55.6906 139.822 -53.3359C115.915 -50.9813 93.5637 -40.4099 76.5769 -23.4231L43.934 -56.066Z" stroke="#F9C9C9" stroke-opacity="0.3" strokeWidth="76" mask="url(#path-1-inside-1_731_18618)"/>
<mask id="path-2-inside-2_731_18618" fill="white">
<path d="M215.934 -171.066C240.473 -195.605 272.761 -210.876 307.297 -214.278C341.834 -217.679 376.481 -209.001 405.335 -189.72C434.19 -170.44 455.467 -141.752 465.541 -108.543C475.615 -75.3338 473.862 -39.6593 460.582 -7.59763C447.302 24.4641 423.315 50.929 392.71 67.2881C362.104 83.6472 326.773 88.8881 292.737 82.1178C258.7 75.3476 228.064 56.9851 206.049 30.1592C184.033 3.33322 172 -30.2964 172 -64.9997L218.164 -64.9998C218.164 -40.9768 226.494 -17.6971 241.734 0.87294C256.974 19.4429 278.181 32.1542 301.743 36.8408C325.304 41.5274 349.762 37.8994 370.948 26.575C392.134 15.2507 408.739 -3.06946 417.932 -25.2638C427.125 -47.4582 428.338 -72.1535 421.365 -95.1421C414.391 -118.131 399.662 -137.99 379.688 -151.336C359.714 -164.683 335.73 -170.691 311.822 -168.336C287.915 -165.981 265.564 -155.41 248.577 -138.423L215.934 -171.066Z"/>
</mask>
<path d="M215.934 -171.066C240.473 -195.605 272.761 -210.876 307.297 -214.278C341.834 -217.679 376.481 -209.001 405.335 -189.72C434.19 -170.44 455.467 -141.752 465.541 -108.543C475.615 -75.3338 473.862 -39.6593 460.582 -7.59763C447.302 24.4641 423.315 50.929 392.71 67.2881C362.104 83.6472 326.773 88.8881 292.737 82.1178C258.7 75.3476 228.064 56.9851 206.049 30.1592C184.033 3.33322 172 -30.2964 172 -64.9997L218.164 -64.9998C218.164 -40.9768 226.494 -17.6971 241.734 0.87294C256.974 19.4429 278.181 32.1542 301.743 36.8408C325.304 41.5274 349.762 37.8994 370.948 26.575C392.134 15.2507 408.739 -3.06946 417.932 -25.2638C427.125 -47.4582 428.338 -72.1535 421.365 -95.1421C414.391 -118.131 399.662 -137.99 379.688 -151.336C359.714 -164.683 335.73 -170.691 311.822 -168.336C287.915 -165.981 265.564 -155.41 248.577 -138.423L215.934 -171.066Z" stroke="#FAD4D4" stroke-opacity="0.4" strokeWidth="76" mask="url(#path-2-inside-2_731_18618)"/>
</g>
<defs>
<clipPath id="clip0_731_18618">
<rect width="399" height="121" fill="white"/>
</clipPath>
</defs>
</svg>
