<svg width="489" height="226" viewBox="0 0 489 226" fill="none" xmlns="http://www.w3.org/2000/svg">
<g clip-path="url(#clip0_731_18627)">
<mask id="path-1-inside-1_731_18627" fill="white">
<path d="M485.771 -38.1116C457.906 -65.9763 421.242 -83.3173 382.025 -87.1798C342.808 -91.0424 303.465 -81.1875 270.699 -59.2943C237.934 -37.4012 213.773 -4.82436 202.334 32.8855C190.895 70.5953 192.885 111.105 207.965 147.512C223.046 183.919 250.283 213.971 285.036 232.547C319.79 251.123 359.909 257.074 398.559 249.387C437.208 241.699 471.997 220.848 496.996 190.386C521.995 159.924 535.659 121.737 535.659 82.33L483.238 82.3299C483.238 109.609 473.78 136.044 456.474 157.13C439.169 178.217 415.087 192.651 388.332 197.973C361.578 203.295 333.805 199.175 309.748 186.316C285.69 173.457 266.835 152.654 256.396 127.451C245.957 102.249 244.579 74.2066 252.498 48.1024C260.416 21.9982 277.141 -0.55275 299.823 -15.7081C322.504 -30.8634 349.739 -37.6853 376.887 -35.0115C404.034 -32.3377 429.415 -20.3336 448.704 -1.04453L485.771 -38.1116Z"/>
</mask>
<path d="M485.771 -38.1116C457.906 -65.9763 421.242 -83.3173 382.025 -87.1798C342.808 -91.0424 303.465 -81.1875 270.699 -59.2943C237.934 -37.4012 213.773 -4.82436 202.334 32.8855C190.895 70.5953 192.885 111.105 207.965 147.512C223.046 183.919 250.283 213.971 285.036 232.547C319.79 251.123 359.909 257.074 398.559 249.387C437.208 241.699 471.997 220.848 496.996 190.386C521.995 159.924 535.659 121.737 535.659 82.33L483.238 82.3299C483.238 109.609 473.78 136.044 456.474 157.13C439.169 178.217 415.087 192.651 388.332 197.973C361.578 203.295 333.805 199.175 309.748 186.316C285.69 173.457 266.835 152.654 256.396 127.451C245.957 102.249 244.579 74.2066 252.498 48.1024C260.416 21.9982 277.141 -0.55275 299.823 -15.7081C322.504 -30.8634 349.739 -37.6853 376.887 -35.0115C404.034 -32.3377 429.415 -20.3336 448.704 -1.04453L485.771 -38.1116Z" stroke="#7D67BD" stroke-opacity="0.05" strokeWidth="86.3004" mask="url(#path-1-inside-1_731_18627)"/>
<mask id="path-2-inside-2_731_18627" fill="white">
<path d="M290.771 -169.016C262.906 -196.881 226.242 -214.222 187.025 -218.084C147.808 -221.947 108.465 -212.092 75.6995 -190.199C42.9341 -168.305 18.7734 -135.729 7.33423 -98.0188C-4.10495 -60.309 -2.11487 -19.7995 12.9654 16.6076C28.0456 53.0146 55.2829 83.0664 90.0365 101.643C124.79 120.219 164.909 126.17 203.559 118.482C242.208 110.794 276.997 89.9433 301.996 59.4816C326.995 29.0199 340.659 -9.16765 340.659 -48.5743L288.238 -48.5744C288.238 -21.2956 278.78 5.13934 261.474 26.2262C244.169 47.313 220.087 61.7469 193.332 67.0687C166.578 72.3905 138.805 68.2709 114.748 55.4117C90.6897 42.5525 71.835 21.7494 61.3958 -3.45294C50.9567 -28.6553 49.5791 -56.6976 57.4977 -82.8019C65.4164 -108.906 82.1414 -131.457 104.823 -146.612C127.504 -161.768 154.739 -168.59 181.887 -165.916C209.034 -163.242 234.415 -151.238 253.704 -131.949L290.771 -169.016Z"/>
</mask>
<path d="M290.771 -169.016C262.906 -196.881 226.242 -214.222 187.025 -218.084C147.808 -221.947 108.465 -212.092 75.6995 -190.199C42.9341 -168.305 18.7734 -135.729 7.33423 -98.0188C-4.10495 -60.309 -2.11487 -19.7995 12.9654 16.6076C28.0456 53.0146 55.2829 83.0664 90.0365 101.643C124.79 120.219 164.909 126.17 203.559 118.482C242.208 110.794 276.997 89.9433 301.996 59.4816C326.995 29.0199 340.659 -9.16765 340.659 -48.5743L288.238 -48.5744C288.238 -21.2956 278.78 5.13934 261.474 26.2262C244.169 47.313 220.087 61.7469 193.332 67.0687C166.578 72.3905 138.805 68.2709 114.748 55.4117C90.6897 42.5525 71.835 21.7494 61.3958 -3.45294C50.9567 -28.6553 49.5791 -56.6976 57.4977 -82.8019C65.4164 -108.906 82.1414 -131.457 104.823 -146.612C127.504 -161.768 154.739 -168.59 181.887 -165.916C209.034 -163.242 234.415 -151.238 253.704 -131.949L290.771 -169.016Z" stroke="#7D67BD" stroke-opacity="0.04" strokeWidth="86.3004" mask="url(#path-2-inside-2_731_18627)"/>
</g>
<defs>
<clipPath id="clip0_731_18627">
<rect width="489" height="226" fill="white" transform="matrix(-1 0 0 1 489 0)"/>
</clipPath>
</defs>
</svg>
