<svg width="1512" height="410" viewBox="0 0 1512 410" fill="none" xmlns="http://www.w3.org/2000/svg">
<path d="M1609.94 307.409C1610.85 312.602 1611.46 317.828 1611.77 323.085L1609.77 323.201C1609.92 325.794 1610 328.393 1610 331C1610 333.607 1609.92 336.206 1609.77 338.798L1611.77 338.915C1611.46 344.172 1610.85 349.398 1609.94 354.591L1607.97 354.246C1607.08 359.331 1605.9 364.386 1604.43 369.408L1606.35 369.968C1604.89 374.976 1603.15 379.95 1601.14 384.887L1599.29 384.133C1597.35 388.894 1595.15 393.623 1592.71 398.318L1594.48 399.242C1592.08 403.846 1589.44 408.415 1586.57 412.946L1584.88 411.876C1582.14 416.193 1579.19 420.479 1576.03 424.731L1577.64 425.924C1574.55 430.069 1571.28 434.18 1567.81 438.255L1566.28 436.959C1562.95 440.87 1559.44 444.75 1555.75 448.596L1557.2 449.98C1553.6 453.735 1549.83 457.457 1545.9 461.145L1544.54 459.687C1540.79 463.203 1536.9 466.689 1532.86 470.143L1534.16 471.664C1530.23 475.023 1526.16 478.351 1521.96 481.647L1520.73 480.074C1516.65 483.273 1512.45 486.443 1508.12 489.582L1509.3 491.201C1505.09 494.25 1500.77 497.269 1496.34 500.258L1495.22 498.6C1490.94 501.483 1486.56 504.338 1482.07 507.163L1483.14 508.856C1478.71 511.643 1474.19 514.402 1469.56 517.132L1468.54 515.41C1464.1 518.032 1459.56 520.628 1454.93 523.196L1455.9 524.944C1451.35 527.473 1446.7 529.975 1441.98 532.45L1441.05 530.677C1436.44 533.091 1431.74 535.479 1426.97 537.84L1427.85 539.633C1423.2 541.935 1418.46 544.212 1413.66 546.463L1412.81 544.652C1408.07 546.873 1403.25 549.069 1398.36 551.239L1399.18 553.067C1394.44 555.17 1389.64 557.248 1384.77 559.302L1383.99 557.459C1379.16 559.499 1374.26 561.513 1369.29 563.503L1370.04 565.359C1365.22 567.289 1360.35 569.195 1355.42 571.077L1354.71 569.208C1349.81 571.079 1344.85 572.926 1339.83 574.748L1340.51 576.628C1335.63 578.402 1330.69 580.154 1325.7 581.881L1325.05 579.991C1320.09 581.709 1315.07 583.404 1310.01 585.075L1310.63 586.974C1305.7 588.604 1300.71 590.21 1295.68 591.794L1295.08 589.886C1290.06 591.464 1285 593.02 1279.89 594.553L1280.46 596.468C1275.48 597.962 1270.46 599.433 1265.39 600.882L1264.84 598.959C1259.78 600.405 1254.68 601.83 1249.54 603.231L1250.07 605.161C1245.04 606.529 1239.98 607.876 1234.88 609.201L1234.38 607.266C1229.29 608.586 1224.17 609.884 1219.01 611.161L1219.49 613.102C1214.42 614.356 1209.32 615.589 1204.18 616.8L1203.72 614.853C1198.62 616.054 1193.48 617.234 1188.31 618.392L1188.75 620.344C1183.63 621.489 1178.48 622.614 1173.3 623.717L1172.88 621.761C1167.77 622.849 1162.62 623.916 1157.44 624.962L1157.84 626.923C1152.68 627.965 1147.49 628.986 1142.27 629.986L1141.89 628.022C1136.77 629.003 1131.62 629.963 1126.44 630.903L1126.79 632.871C1121.61 633.811 1116.39 634.731 1111.15 635.63L1110.81 633.658C1105.67 634.539 1100.5 635.4 1095.3 636.24L1095.62 638.214C1090.43 639.053 1085.22 639.871 1079.98 640.668L1079.68 638.691C1074.49 639.48 1069.28 640.248 1064.05 640.996L1064.33 642.976C1059.14 643.717 1053.93 644.437 1048.7 645.137L1048.43 643.155C1043.21 643.854 1037.96 644.532 1032.69 645.19L1032.94 647.175C1027.75 647.821 1022.55 648.448 1017.32 649.054L1017.09 647.068C1011.87 647.673 1006.63 648.259 1001.37 648.824L1001.58 650.813C996.359 651.373 991.118 651.914 985.857 652.434L985.66 650.443C980.447 650.959 975.213 651.454 969.961 651.93L970.141 653.921C964.884 654.397 959.608 654.853 954.313 655.288L954.15 653.294C948.944 653.722 943.72 654.13 938.478 654.518L938.626 656.513C933.379 656.901 928.115 657.27 922.834 657.618L922.702 655.622C917.461 655.968 912.202 656.294 906.928 656.599L907.044 658.596C901.808 658.899 896.556 659.183 891.289 659.447L891.189 657.449C885.927 657.712 880.65 657.956 875.358 658.179L875.442 660.177C870.205 660.398 864.953 660.599 859.687 660.781L859.618 658.782C854.369 658.962 849.107 659.123 843.831 659.264L843.884 661.263C838.615 661.404 833.332 661.525 828.037 661.625L827.999 659.626C822.763 659.725 817.515 659.805 812.255 659.865L812.277 661.865C807.012 661.925 801.734 661.965 796.444 661.985L796.436 659.985C793.794 659.995 791.148 660 788.5 660C785.852 660 783.206 659.995 780.564 659.985L780.556 661.985C775.266 661.965 769.989 661.925 764.723 661.865L764.746 659.865C759.485 659.805 754.237 659.725 749.002 659.626L748.964 661.625C743.668 661.525 738.385 661.404 733.116 661.263L733.169 659.264C727.893 659.123 722.631 658.962 717.382 658.782L717.314 660.781C712.047 660.599 706.796 660.398 701.558 660.177L701.642 658.179C696.35 657.956 691.073 657.712 685.811 657.449L685.711 659.447C680.444 659.183 675.192 658.899 669.957 658.596L670.072 656.599C664.798 656.294 659.539 655.968 654.298 655.622L654.166 657.618C648.885 657.27 643.621 656.901 638.374 656.513L638.522 654.518C633.281 654.13 628.057 653.722 622.851 653.294L622.687 655.288C617.392 654.853 612.116 654.397 606.859 653.921L607.039 651.93C601.787 651.454 596.554 650.959 591.34 650.443L591.143 652.434C585.882 651.914 580.642 651.373 575.421 650.813L575.635 648.824C570.372 648.259 565.129 647.674 559.908 647.068L559.678 649.054C554.451 648.448 549.246 647.821 544.062 647.175L544.31 645.19C539.039 644.532 533.791 643.854 528.566 643.155L528.301 645.137C523.067 644.437 517.857 643.717 512.671 642.976L512.953 640.996C507.719 640.248 502.508 639.48 497.323 638.691L497.022 640.668C491.783 639.871 486.569 639.053 481.382 638.214L481.701 636.24C476.505 635.4 471.335 634.539 466.192 633.658L465.854 635.63C460.61 634.731 455.394 633.811 450.207 632.871L450.564 630.903C445.383 629.964 440.231 629.003 435.108 628.022L434.732 629.986C429.511 628.987 424.32 627.965 419.16 626.923L419.556 624.962C414.379 623.916 409.233 622.849 404.119 621.761L403.702 623.717C398.52 622.614 393.371 621.489 388.255 620.344L388.692 618.392C383.521 617.234 378.385 616.054 373.284 614.853L372.825 616.8C367.683 615.589 362.577 614.356 357.507 613.102L357.987 611.161C352.827 609.884 347.706 608.586 342.623 607.266L342.12 609.201C337.019 607.876 331.957 606.529 326.935 605.161L327.461 603.231C322.318 601.83 317.218 600.406 312.16 598.959L311.61 600.882C306.544 599.433 301.52 597.962 296.54 596.468L297.115 594.553C292.005 593.02 286.941 591.465 281.924 589.886L281.324 591.794C276.291 590.21 271.305 588.604 266.367 586.974L266.993 585.075C261.928 583.404 256.914 581.709 251.952 579.991L251.297 581.881C246.309 580.154 241.372 578.402 236.488 576.628L237.171 574.748C232.155 572.926 227.195 571.079 222.292 569.208L221.579 571.077C216.648 569.195 211.776 567.289 206.962 565.359L207.706 563.503C202.743 561.513 197.844 559.499 193.009 557.459L192.232 559.302C187.364 557.248 182.561 555.17 177.824 553.067L178.635 551.239C173.749 549.069 168.933 546.873 164.19 544.652L163.342 546.463C158.536 544.212 153.804 541.935 149.148 539.633L150.034 537.84C145.26 535.479 140.565 533.091 135.952 530.678L135.025 532.45C130.296 529.975 125.653 527.473 121.097 524.945L122.067 523.196C117.44 520.628 112.903 518.032 108.458 515.41L107.442 517.132C102.815 514.402 98.2872 511.643 93.8603 508.856L94.926 507.164C90.4381 504.338 86.0552 501.483 81.7794 498.6L80.6614 500.259C76.2277 497.269 71.9078 494.25 67.7042 491.201L68.8785 489.582C64.5508 486.443 60.348 483.273 56.2726 480.074L55.0376 481.647C50.8389 478.351 46.7737 475.023 42.8448 471.664L44.1444 470.144C40.1039 466.689 36.2098 463.203 32.465 459.687L31.0959 461.145C27.1689 457.457 23.4037 453.735 19.8039 449.981L21.2476 448.596C17.5599 444.75 14.0487 440.87 10.7174 436.959L9.19481 438.255C5.72408 434.18 2.44564 430.069 -0.636169 425.924L0.968845 424.731C-2.19235 420.479 -5.143 416.193 -7.87879 411.876L-9.56818 412.946C-12.4394 408.415 -15.0781 403.846 -17.4788 399.242L-15.7054 398.318C-18.1536 393.623 -20.3499 388.894 -22.2892 384.133L-24.1414 384.888C-26.1526 379.95 -27.892 374.976 -29.3533 369.968L-27.4333 369.408C-28.8986 364.386 -30.0798 359.331 -30.9707 354.246L-32.9406 354.591C-33.8505 349.398 -34.4623 344.172 -34.7692 338.915L-32.7726 338.799C-32.9239 336.206 -33 333.607 -33 331C-33 328.393 -32.9239 325.794 -32.7726 323.202L-34.7692 323.085C-34.4623 317.828 -33.8505 312.602 -32.9407 307.409L-30.9707 307.754C-30.0798 302.669 -28.8987 297.614 -27.4334 292.592L-29.3533 292.032C-27.8921 287.024 -26.1527 282.05 -24.1415 277.113L-22.2893 277.867C-20.35 273.106 -18.1537 268.377 -15.7055 263.682L-17.4788 262.758C-15.0782 258.154 -12.4395 253.585 -9.56828 249.054L-7.87889 250.124C-5.1431 245.807 -2.19247 241.521 0.968723 237.269L-0.636292 236.076C2.44552 231.931 5.72397 227.82 9.19471 223.745L10.7173 225.041C14.0485 221.13 17.5598 217.25 21.2475 213.404L19.8038 212.02C23.4036 208.265 27.1688 204.543 31.0958 200.855L32.4648 202.313C36.2097 198.797 40.1038 195.311 44.1443 191.857L42.8446 190.336C46.7735 186.977 50.8387 183.649 55.0375 180.353L56.2724 181.926C60.3479 178.727 64.5507 175.557 68.8783 172.418L67.704 170.799C71.9076 167.75 76.2275 164.731 80.6613 161.742L81.7793 163.4C86.0551 160.517 90.438 157.662 94.9258 154.837L93.8602 153.144C98.287 150.357 102.815 147.598 107.442 144.868L108.458 146.59C112.903 143.968 117.44 141.372 122.067 138.804L121.096 137.056C125.653 134.527 130.296 132.025 135.025 129.55L135.952 131.323C140.565 128.909 145.26 126.521 150.034 124.16L149.148 122.367C153.804 120.065 158.536 117.788 163.342 115.537L164.19 117.348C168.933 115.127 173.749 112.931 178.635 110.761L177.824 108.933C182.561 106.83 187.364 104.752 192.232 102.698L193.009 104.541C197.844 102.501 202.743 100.487 207.706 98.4973L206.962 96.6409C211.775 94.7111 216.648 92.8051 221.579 90.9234L222.292 92.7919C227.194 90.9211 232.154 89.0741 237.171 87.2516L236.488 85.3718C241.372 83.5976 246.308 81.8465 251.297 80.1191L251.952 82.009C256.914 80.2908 261.928 78.5959 266.993 76.9248L266.367 75.0255C271.305 73.3964 276.29 71.7898 281.323 70.2063L281.924 72.1141C286.941 70.5355 292.005 68.9799 297.115 67.4475L296.54 65.5318C301.52 64.0383 306.544 62.567 311.61 61.1182L312.16 63.0411C317.218 61.5945 322.318 60.1704 327.46 58.769L326.935 56.8394C331.957 55.4706 337.019 54.1236 342.12 52.7986L342.623 54.7344C347.706 53.4141 352.827 52.1156 357.987 50.8394L357.506 48.898C362.576 47.6438 367.683 46.4112 372.825 45.2003L373.283 47.1471C378.385 45.9459 383.521 44.7661 388.692 43.608L388.254 41.6564C393.37 40.5106 398.52 39.3862 403.702 38.2833L404.118 40.2394C409.232 39.1511 414.379 38.0837 419.556 37.0377L419.16 35.0773C424.32 34.0348 429.511 33.0135 434.732 32.0137L435.108 33.978C440.231 32.9969 445.383 32.0366 450.564 31.0971L450.207 29.1292C455.394 28.1886 460.61 27.2689 465.854 26.3705L466.191 28.3418C471.334 27.4606 476.504 26.5999 481.701 25.7599L481.381 23.7855C486.569 22.9469 491.783 22.1289 497.022 21.3317L497.323 23.309C502.508 22.5201 507.719 21.7516 512.953 21.0038L512.67 19.0239C517.857 18.2831 523.067 17.5626 528.3 16.8626L528.565 18.8449C533.79 18.146 539.039 17.4677 544.31 16.81L544.062 14.8254C549.245 14.1787 554.451 13.552 559.677 12.9456L559.908 14.9323C565.129 14.3265 570.371 13.741 575.635 13.1759L575.421 11.1873C580.641 10.6268 585.882 10.0864 591.143 9.56632L591.34 11.5566C596.553 11.0412 601.787 10.5457 607.039 10.0705L606.859 8.0786C612.116 7.60291 617.392 7.14742 622.687 6.71236L622.85 8.70565C628.056 8.27786 633.28 7.86984 638.522 7.48179L638.374 5.48725C643.621 5.0988 648.885 4.73034 654.166 4.38207L654.298 6.37774C659.539 6.03207 664.798 5.70631 670.072 5.40067L669.956 3.40402C675.192 3.10062 680.444 2.81703 685.711 2.55342L685.811 4.55092C691.073 4.28758 696.35 4.04421 701.642 3.821L701.558 1.82278C706.795 1.60189 712.047 1.40073 717.314 1.2195L717.382 3.21831C722.631 3.03769 727.893 2.87687 733.169 2.73604L733.116 0.736752C738.385 0.596111 743.668 0.475389 748.963 0.374774L749.001 2.37441C754.237 2.27494 759.485 2.19514 764.745 2.13519L764.723 0.135323C769.988 0.0753144 775.266 0.0351737 780.556 0.0150808L780.564 2.01507C783.206 2.00503 785.852 2 788.5 2C791.148 2 793.794 2.00503 796.436 2.01507L796.444 0.0150799C801.733 0.0351721 807.011 0.0753122 812.277 0.13532L812.254 2.13519C817.515 2.19514 822.763 2.27494 827.998 2.37441L828.036 0.37477C833.332 0.475384 838.615 0.596105 843.884 0.736746L843.831 2.73603C849.107 2.87686 854.369 3.03768 859.617 3.21831L859.686 1.21949C864.952 1.40073 870.204 1.60188 875.442 1.82277L875.358 3.821C880.65 4.0442 885.927 4.28757 891.189 4.55091L891.289 2.55341C896.556 2.81702 901.808 3.10061 907.043 3.40401L906.928 5.40066C912.202 5.7063 917.461 6.03206 922.702 6.37772L922.834 4.38206C928.115 4.73033 933.379 5.09878 938.626 5.48723L938.478 7.48177C943.719 7.86983 948.943 8.27785 954.149 8.70563L954.313 6.71235C959.608 7.14741 964.884 7.60289 970.141 8.07858L969.961 10.0704C975.213 10.5457 980.446 11.0412 985.66 11.5566L985.857 9.5663C991.117 10.0864 996.358 10.6268 1001.58 11.1873L1001.37 13.1758C1006.63 13.7409 1011.87 14.3265 1017.09 14.9323L1017.32 12.9456C1022.55 13.552 1027.75 14.1787 1032.94 14.8254L1032.69 16.81C1037.96 17.4677 1043.21 18.146 1048.43 18.8449L1048.7 16.8625C1053.93 17.5625 1059.14 18.2831 1064.33 19.0239L1064.05 21.0038C1069.28 21.7516 1074.49 22.52 1079.68 23.3089L1079.98 21.3317C1085.22 22.1289 1090.43 22.9469 1095.62 23.7855L1095.3 25.7599C1100.5 26.5999 1105.67 27.4606 1110.81 28.3418L1111.15 26.3705C1116.39 27.2689 1121.61 28.1885 1126.79 29.1292L1126.44 31.0971C1131.62 32.0365 1136.77 32.9969 1141.89 33.9779L1142.27 32.0136C1147.49 33.0135 1152.68 34.0348 1157.84 35.0773L1157.44 37.0376C1162.62 38.0837 1167.77 39.151 1172.88 40.2394L1173.3 38.2832C1178.48 39.3861 1183.63 40.5106 1188.75 41.6563L1188.31 43.608C1193.48 44.766 1198.62 45.9458 1203.72 47.147L1204.17 45.2003C1209.32 46.4111 1214.42 47.6438 1219.49 48.8979L1219.01 50.8394C1224.17 52.1156 1229.29 53.414 1234.38 54.7344L1234.88 52.7986C1239.98 54.1236 1245.04 55.4706 1250.07 56.8393L1249.54 58.769C1254.68 60.1703 1259.78 61.5945 1264.84 63.041L1265.39 61.1181C1270.46 62.567 1275.48 64.0383 1280.46 65.5317L1279.89 67.4474C1285 68.9798 1290.06 70.5355 1295.08 72.114L1295.68 70.2062C1300.71 71.7897 1305.7 73.3963 1310.63 75.0255L1310.01 76.9248C1315.07 78.5959 1320.09 80.2907 1325.05 82.009L1325.7 80.119C1330.69 81.8465 1335.63 83.5975 1340.51 85.3718L1339.83 87.2516C1344.85 89.0741 1349.81 90.921 1354.71 92.7919L1355.42 90.9233C1360.35 92.8051 1365.22 94.7111 1370.04 96.6409L1369.29 98.4973C1374.26 100.487 1379.16 102.501 1383.99 104.541L1384.77 102.698C1389.64 104.752 1394.44 106.83 1399.18 108.933L1398.36 110.761C1403.25 112.931 1408.07 115.127 1412.81 117.348L1413.66 115.537C1418.46 117.788 1423.2 120.064 1427.85 122.367L1426.97 124.16C1431.74 126.521 1436.43 128.909 1441.05 131.322L1441.98 129.55C1446.7 132.025 1451.35 134.527 1455.9 137.055L1454.93 138.804C1459.56 141.372 1464.1 143.968 1468.54 146.59L1469.56 144.868C1474.19 147.598 1478.71 150.357 1483.14 153.144L1482.07 154.837C1486.56 157.662 1490.94 160.517 1495.22 163.4L1496.34 161.741C1500.77 164.731 1505.09 167.75 1509.3 170.799L1508.12 172.418C1512.45 175.557 1516.65 178.727 1520.73 181.926L1521.96 180.353C1526.16 183.649 1530.23 186.977 1534.16 190.336L1532.86 191.856C1536.9 195.311 1540.79 198.797 1544.54 202.313L1545.9 200.855C1549.83 204.543 1553.6 208.265 1557.2 212.02L1555.75 213.404C1559.44 217.25 1562.95 221.13 1566.28 225.041L1567.81 223.745C1571.28 227.82 1574.55 231.931 1577.64 236.076L1576.03 237.269C1579.19 241.521 1582.14 245.807 1584.88 250.124L1586.57 249.054C1589.44 253.585 1592.08 258.154 1594.48 262.758L1592.71 263.682C1595.15 268.377 1597.35 273.106 1599.29 277.867L1601.14 277.112C1603.15 282.05 1604.89 287.024 1606.35 292.032L1604.43 292.592C1605.9 297.614 1607.08 302.669 1607.97 307.754L1609.94 307.409Z" stroke="#F9C9C9" stroke-width="4" stroke-dasharray="16 16"/>
</svg>
