<svg width="40" height="40" viewBox="0 0 40 40" fill="none" xmlns="http://www.w3.org/2000/svg">
<circle cx="20" cy="20" r="19.6797" fill="#FEF4F4" stroke="#F9C9C9" stroke-width="0.640625"/>
<path d="M13.275 23.8586C13.1167 23.8586 12.9583 23.8003 12.8333 23.6753C12.5917 23.4336 12.5917 23.0336 12.8333 22.7919L22.7917 12.8336C23.0333 12.5919 23.4333 12.5919 23.675 12.8336C23.9167 13.0753 23.9167 13.4753 23.675 13.7169L13.7167 23.6836C13.6 23.8003 13.4333 23.8586 13.275 23.8586Z" fill="#645050"/>
<path d="M19.25 25.8592C19.0917 25.8592 18.9333 25.8009 18.8083 25.6759C18.5667 25.4342 18.5667 25.0342 18.8083 24.7926L19.8083 23.7926C20.05 23.5509 20.45 23.5509 20.6917 23.7926C20.9333 24.0342 20.9333 24.4342 20.6917 24.6759L19.6917 25.6759C19.575 25.7926 19.4167 25.8592 19.25 25.8592Z" fill="#645050"/>
<path d="M21.4917 23.6165C21.3334 23.6165 21.175 23.5582 21.05 23.4332C20.8084 23.1915 20.8084 22.7915 21.05 22.5499L23.0417 20.5582C23.2834 20.3165 23.6834 20.3165 23.925 20.5582C24.1667 20.7999 24.1667 21.1999 23.925 21.4415L21.9334 23.4332C21.8167 23.5499 21.65 23.6165 21.4917 23.6165Z" fill="#645050"/>
<path d="M19.25 28.9574C18.4333 28.9574 17.6166 28.4574 16.625 27.4658L12.5333 23.3741C10.5416 21.3824 10.55 20.0991 12.5583 18.0908L18.0916 12.5574C20.1 10.5491 21.3833 10.5408 23.375 12.5324L27.4666 16.6241C29.4583 18.6158 29.45 19.8991 27.4416 21.9074L21.9083 27.4408C20.9 28.4491 20.075 28.9574 19.25 28.9574ZM20.75 12.2908C20.3166 12.2908 19.7666 12.6491 18.975 13.4408L13.4416 18.9741C12.65 19.7658 12.2916 20.3158 12.2916 20.7408C12.2916 21.1741 12.625 21.6991 13.4166 22.4908L17.5083 26.5824C18.3 27.3741 18.8166 27.7074 19.25 27.7074C19.25 27.7074 19.25 27.7074 19.2583 27.7074C19.6916 27.7074 20.2333 27.3491 21.025 26.5574L26.5583 21.0241C27.35 20.2324 27.7083 19.6824 27.7083 19.2574C27.7083 18.8241 27.375 18.2991 26.5833 17.5074L22.4916 13.4158C21.7083 12.6241 21.1833 12.2908 20.75 12.2908Z" fill="#645050"/>
<path d="M28.3333 28.959H11.6666C11.325 28.959 11.0416 28.6757 11.0416 28.334C11.0416 27.9923 11.325 27.709 11.6666 27.709H28.3333C28.675 27.709 28.9583 27.9923 28.9583 28.334C28.9583 28.6757 28.675 28.959 28.3333 28.959Z" fill="#645050"/>
</svg>
