<svg width="40" height="40" viewBox="0 0 40 40" fill="none" xmlns="http://www.w3.org/2000/svg">
<circle cx="20" cy="20" r="19.6797" fill="#FEF4F4" stroke="#F9C9C9" stroke-width="0.640625"/>
<path d="M24.9998 16.5925C24.9748 16.5925 24.9581 16.5925 24.9331 16.5925H24.8915C23.3165 16.5425 22.1415 15.3258 22.1415 13.8258C22.1415 12.2924 23.3915 11.0508 24.9165 11.0508C26.4415 11.0508 27.6915 12.3008 27.6915 13.8258C27.6831 15.3341 26.5081 16.5508 25.0081 16.6008C25.0081 16.5925 25.0081 16.5925 24.9998 16.5925ZM24.9165 12.2925C24.0748 12.2925 23.3915 12.9758 23.3915 13.8175C23.3915 14.6425 24.0331 15.3091 24.8581 15.3425C24.8665 15.3341 24.9331 15.3341 25.0081 15.3425C25.8165 15.3008 26.4415 14.6341 26.4498 13.8175C26.4498 12.9758 25.7665 12.2925 24.9165 12.2925Z" fill="#645050"/>
<path d="M25.0084 22.7339C24.6834 22.7339 24.3584 22.7089 24.0334 22.6505C23.6917 22.5922 23.4667 22.2672 23.525 21.9255C23.5834 21.5839 23.9084 21.3589 24.25 21.4172C25.275 21.5922 26.3584 21.4005 27.0834 20.9172C27.475 20.6589 27.6834 20.3339 27.6834 20.0089C27.6834 19.6839 27.4667 19.3672 27.0834 19.1089C26.3584 18.6255 25.2584 18.4339 24.225 18.6172C23.8834 18.6839 23.5584 18.4505 23.5 18.1089C23.4417 17.7672 23.6667 17.4422 24.0084 17.3839C25.3667 17.1422 26.775 17.4005 27.775 18.0672C28.5084 18.5589 28.9334 19.2589 28.9334 20.0089C28.9334 20.7505 28.5167 21.4589 27.775 21.9589C27.0167 22.4589 26.0334 22.7339 25.0084 22.7339Z" fill="#645050"/>
<path d="M14.975 16.591C14.9667 16.591 14.9584 16.591 14.9584 16.591C13.4584 16.541 12.2834 15.3243 12.275 13.8243C12.275 12.291 13.525 11.041 15.05 11.041C16.575 11.041 17.825 12.291 17.825 13.816C17.825 15.3244 16.65 16.541 15.15 16.591L14.975 15.966L15.0334 16.591C15.0167 16.591 14.9917 16.591 14.975 16.591ZM15.0584 15.341C15.1084 15.341 15.15 15.341 15.2 15.3493C15.9417 15.316 16.5917 14.6493 16.5917 13.8243C16.5917 12.9827 15.9084 12.2993 15.0667 12.2993C14.225 12.2993 13.5417 12.9827 13.5417 13.8243C13.5417 14.641 14.175 15.2993 14.9834 15.3493C14.9917 15.341 15.025 15.341 15.0584 15.341Z" fill="#645050"/>
<path d="M14.9666 22.7339C13.9416 22.7339 12.9583 22.4589 12.2 21.9589C11.4666 21.4672 11.0416 20.7589 11.0416 20.0089C11.0416 19.2672 11.4666 18.5589 12.2 18.0672C13.2 17.4005 14.6083 17.1422 15.9666 17.3839C16.3083 17.4422 16.5333 17.7672 16.475 18.1089C16.4166 18.4505 16.0916 18.6839 15.75 18.6172C14.7166 18.4339 13.625 18.6255 12.8916 19.1089C12.5 19.3672 12.2916 19.6839 12.2916 20.0089C12.2916 20.3339 12.5083 20.6589 12.8916 20.9172C13.6166 21.4005 14.7 21.5922 15.725 21.4172C16.0666 21.3589 16.3916 21.5922 16.45 21.9255C16.5083 22.2672 16.2833 22.5922 15.9416 22.6505C15.6166 22.7089 15.2916 22.7339 14.9666 22.7339Z" fill="#645050"/>
<path d="M19.9998 22.8171C19.9748 22.8171 19.9581 22.8171 19.9331 22.8171H19.8915C18.3165 22.7671 17.1415 21.5504 17.1415 20.0504C17.1415 18.5171 18.3915 17.2754 19.9165 17.2754C21.4415 17.2754 22.6915 18.5254 22.6915 20.0504C22.6831 21.5587 21.5081 22.7754 20.0081 22.8254C20.0081 22.8171 20.0081 22.8171 19.9998 22.8171ZM19.9165 18.5171C19.0748 18.5171 18.3915 19.2004 18.3915 20.0421C18.3915 20.8671 19.0331 21.5337 19.8581 21.5671C19.8665 21.5587 19.9331 21.5587 20.0081 21.5671C20.8165 21.5254 21.4415 20.8587 21.4498 20.0421C21.4498 19.2087 20.7665 18.5171 19.9165 18.5171Z" fill="#645050"/>
<path d="M19.9999 28.9676C18.9999 28.9676 17.9999 28.7093 17.2249 28.1843C16.4915 27.6926 16.0665 26.9926 16.0665 26.2426C16.0665 25.5009 16.4832 24.7842 17.2249 24.2926C18.7832 23.2592 21.2249 23.2592 22.7749 24.2926C23.5082 24.7842 23.9332 25.4842 23.9332 26.2342C23.9332 26.9759 23.5165 27.6926 22.7749 28.1843C21.9999 28.7009 20.9999 28.9676 19.9999 28.9676ZM17.9165 25.3426C17.5249 25.6009 17.3165 25.9259 17.3165 26.2509C17.3165 26.5759 17.5332 26.8926 17.9165 27.1509C19.0415 27.9093 20.9499 27.9093 22.0749 27.1509C22.4665 26.8926 22.6749 26.5676 22.6749 26.2426C22.6749 25.9176 22.4582 25.6009 22.0749 25.3426C20.9582 24.5843 19.0499 24.5926 17.9165 25.3426Z" fill="#645050"/>
</svg>
