<svg width="40" height="40" viewBox="0 0 40 40" fill="none" xmlns="http://www.w3.org/2000/svg">
<circle cx="20" cy="20" r="19.6797" fill="#FEF4F4" stroke="#F9C9C9" stroke-width="0.640625"/>
<path d="M25.1583 24.791H16.2833C15.4583 24.791 14.6666 24.441 14.1083 23.8327C13.55 23.2244 13.2666 22.4077 13.3333 21.5827L14.025 13.2827C14.05 13.0244 13.9583 12.7744 13.7833 12.5827C13.6083 12.391 13.3666 12.291 13.1083 12.291H11.6666C11.325 12.291 11.0416 12.0077 11.0416 11.666C11.0416 11.3243 11.325 11.041 11.6666 11.041H13.1166C13.725 11.041 14.3 11.2993 14.7083 11.741C14.9333 11.991 15.1 12.2827 15.1916 12.6077H25.6C26.4416 12.6077 27.2166 12.941 27.7833 13.541C28.3416 14.1493 28.625 14.941 28.5583 15.7827L28.1083 22.0327C28.0166 23.5577 26.6833 24.791 25.1583 24.791ZM15.2333 13.8493L14.5833 21.6827C14.5416 22.166 14.7 22.6243 15.025 22.9827C15.35 23.341 15.8 23.5327 16.2833 23.5327H25.1583C26.025 23.5327 26.8083 22.7994 26.875 21.9327L27.325 15.6827C27.3583 15.191 27.2 14.7244 26.875 14.3827C26.55 14.0327 26.1 13.841 25.6083 13.841H15.2333V13.8493Z" fill="#645050"/>
<path d="M23.5417 28.9583C22.625 28.9583 21.875 28.2083 21.875 27.2917C21.875 26.375 22.625 25.625 23.5417 25.625C24.4583 25.625 25.2083 26.375 25.2083 27.2917C25.2083 28.2083 24.4583 28.9583 23.5417 28.9583ZM23.5417 26.875C23.3083 26.875 23.125 27.0583 23.125 27.2917C23.125 27.525 23.3083 27.7083 23.5417 27.7083C23.775 27.7083 23.9583 27.525 23.9583 27.2917C23.9583 27.0583 23.775 26.875 23.5417 26.875Z" fill="#645050"/>
<path d="M16.875 28.9583C15.9584 28.9583 15.2084 28.2083 15.2084 27.2917C15.2084 26.375 15.9584 25.625 16.875 25.625C17.7917 25.625 18.5417 26.375 18.5417 27.2917C18.5417 28.2083 17.7917 28.9583 16.875 28.9583ZM16.875 26.875C16.6417 26.875 16.4584 27.0583 16.4584 27.2917C16.4584 27.525 16.6417 27.7083 16.875 27.7083C17.1084 27.7083 17.2917 27.525 17.2917 27.2917C17.2917 27.0583 17.1084 26.875 16.875 26.875Z" fill="#645050"/>
<path d="M27.5 17.291H17.5C17.1583 17.291 16.875 17.0077 16.875 16.666C16.875 16.3243 17.1583 16.041 17.5 16.041H27.5C27.8417 16.041 28.125 16.3243 28.125 16.666C28.125 17.0077 27.8417 17.291 27.5 17.291Z" fill="#645050"/>
</svg>
