<svg width="40" height="40" viewBox="0 0 40 40" fill="none" xmlns="http://www.w3.org/2000/svg">
<circle cx="20" cy="20" r="19.6797" fill="#FEF4F4" stroke="#F9C9C9" stroke-width="0.640625"/>
<path d="M17.6335 19.6827C17.6085 19.6827 17.5918 19.6827 17.5668 19.6827C17.5252 19.6743 17.4668 19.6743 17.4168 19.6827C15.0002 19.6077 13.1752 17.7077 13.1752 15.366C13.1752 12.9827 15.1168 11.041 17.5002 11.041C19.8835 11.041 21.8252 12.9827 21.8252 15.366C21.8168 17.7077 19.9835 19.6077 17.6585 19.6827C17.6502 19.6827 17.6418 19.6827 17.6335 19.6827ZM17.5002 12.291C15.8085 12.291 14.4252 13.6743 14.4252 15.366C14.4252 17.0327 15.7252 18.3743 17.3835 18.4327C17.4335 18.4243 17.5418 18.4243 17.6502 18.4327C19.2835 18.3577 20.5668 17.016 20.5752 15.366C20.5752 13.6743 19.1918 12.291 17.5002 12.291Z" fill="#645050"/>
<path d="M23.7835 19.7923C23.7585 19.7923 23.7335 19.7923 23.7085 19.784C23.3668 19.8173 23.0168 19.5757 22.9835 19.234C22.9501 18.8923 23.1585 18.584 23.5001 18.5423C23.6001 18.534 23.7085 18.534 23.8001 18.534C25.0168 18.4673 25.9668 17.4673 25.9668 16.2423C25.9668 14.9757 24.9418 13.9507 23.6751 13.9507C23.3335 13.959 23.0501 13.6757 23.0501 13.334C23.0501 12.9923 23.3335 12.709 23.6751 12.709C25.6251 12.709 27.2168 14.3007 27.2168 16.2507C27.2168 18.1673 25.7168 19.7173 23.8085 19.7923C23.8001 19.7923 23.7918 19.7923 23.7835 19.7923Z" fill="#645050"/>
<path d="M17.6418 28.7923C16.0085 28.7923 14.3668 28.3757 13.1252 27.5423C11.9668 26.7757 11.3335 25.7257 11.3335 24.584C11.3335 23.4423 11.9668 22.384 13.1252 21.609C15.6252 19.9507 19.6752 19.9507 22.1585 21.609C23.3085 22.3757 23.9502 23.4257 23.9502 24.5673C23.9502 25.709 23.3168 26.7673 22.1585 27.5423C20.9085 28.3757 19.2752 28.7923 17.6418 28.7923ZM13.8168 22.659C13.0168 23.1923 12.5835 23.8757 12.5835 24.5923C12.5835 25.3007 13.0252 25.984 13.8168 26.509C15.8918 27.9007 19.3918 27.9007 21.4668 26.509C22.2668 25.9757 22.7002 25.2923 22.7002 24.5757C22.7002 23.8673 22.2585 23.184 21.4668 22.659C19.3918 21.2757 15.8918 21.2757 13.8168 22.659Z" fill="#645050"/>
<path d="M25.2835 27.2917C24.9918 27.2917 24.7335 27.0917 24.6751 26.7917C24.6085 26.45 24.8251 26.125 25.1585 26.05C25.6835 25.9417 26.1668 25.7333 26.5418 25.4417C27.0168 25.0833 27.2751 24.6333 27.2751 24.1583C27.2751 23.6833 27.0168 23.2333 26.5501 22.8833C26.1835 22.6 25.7251 22.4 25.1835 22.275C24.8501 22.2 24.6335 21.8667 24.7085 21.525C24.7835 21.1917 25.1168 20.975 25.4585 21.05C26.1751 21.2083 26.8001 21.4917 27.3085 21.8833C28.0835 22.4667 28.5251 23.2917 28.5251 24.1583C28.5251 25.025 28.0751 25.85 27.3001 26.4417C26.7835 26.8417 26.1335 27.1333 25.4168 27.275C25.3668 27.2917 25.3251 27.2917 25.2835 27.2917Z" fill="#645050"/>
</svg>
