<svg width="40" height="40" viewBox="0 0 40 40" fill="none" xmlns="http://www.w3.org/2000/svg">
<circle cx="20" cy="20" r="19.6797" fill="#FEF4F4" stroke="#F9C9C9" stroke-width="0.640625"/>
<path d="M22.5 20.791H16.6666C16.325 20.791 16.0416 20.5077 16.0416 20.166C16.0416 19.8243 16.325 19.541 16.6666 19.541H22.5C22.8416 19.541 23.125 19.8243 23.125 20.166C23.125 20.5077 22.8416 20.791 22.5 20.791Z" fill="#645050"/>
<path d="M20.3166 24.125H16.6666C16.325 24.125 16.0416 23.8417 16.0416 23.5C16.0416 23.1583 16.325 22.875 16.6666 22.875H20.3166C20.6583 22.875 20.9416 23.1583 20.9416 23.5C20.9416 23.8417 20.6583 24.125 20.3166 24.125Z" fill="#645050"/>
<path d="M21.6666 15.6243H18.3333C17.5333 15.6243 16.0416 15.6243 16.0416 13.3327C16.0416 11.041 17.5333 11.041 18.3333 11.041H21.6666C22.4666 11.041 23.9583 11.041 23.9583 13.3327C23.9583 14.1327 23.9583 15.6243 21.6666 15.6243ZM18.3333 12.291C17.5083 12.291 17.2916 12.291 17.2916 13.3327C17.2916 14.3743 17.5083 14.3743 18.3333 14.3743H21.6666C22.7083 14.3743 22.7083 14.1577 22.7083 13.3327C22.7083 12.291 22.4916 12.291 21.6666 12.291H18.3333Z" fill="#645050"/>
<path d="M22.5 28.9587H17.5C12.8167 28.9587 11.875 26.8087 11.875 23.3337V18.3337C11.875 14.5337 13.25 12.9087 16.6333 12.7337C16.9667 12.717 17.275 12.9754 17.2917 13.3254C17.3083 13.6754 17.0417 13.9587 16.7 13.9754C14.3333 14.1087 13.125 14.817 13.125 18.3337V23.3337C13.125 26.417 13.7333 27.7087 17.5 27.7087H22.5C26.2667 27.7087 26.875 26.417 26.875 23.3337V18.3337C26.875 14.817 25.6667 14.1087 23.3 13.9754C22.9583 13.9587 22.6917 13.6587 22.7083 13.317C22.725 12.9754 23.025 12.7087 23.3667 12.7254C26.75 12.9087 28.125 14.5337 28.125 18.3253V23.3253C28.125 26.8087 27.1833 28.9587 22.5 28.9587Z" fill="#645050"/>
</svg>
