<svg width="40" height="40" viewBox="0 0 40 40" fill="none" xmlns="http://www.w3.org/2000/svg">
<circle cx="20" cy="20" r="19.6797" fill="#FEF4F4" stroke="#F9C9C9" stroke-width="0.640625"/>
<path d="M18.7834 28.2827C18.5917 28.2827 18.4084 28.1994 18.2834 28.0327L17.4417 26.9077C17.2667 26.6744 17.0334 26.541 16.7834 26.5243C16.525 26.5077 16.2833 26.6244 16.0833 26.8327C14.875 28.1244 13.9584 28.016 13.5167 27.8494C13.0667 27.6744 12.3083 27.0993 12.3083 25.2493V15.866C12.3083 12.166 13.375 11.041 16.8667 11.041H23.1584C26.65 11.041 27.7167 12.166 27.7167 15.866V19.416C27.7167 19.7577 27.4334 20.041 27.0917 20.041C26.75 20.041 26.4667 19.7577 26.4667 19.416V15.866C26.4667 12.8577 25.9417 12.291 23.1584 12.291H16.8667C14.0834 12.291 13.5583 12.8577 13.5583 15.866V25.2493C13.5583 26.1243 13.775 26.6077 13.975 26.6827C14.125 26.741 14.5334 26.6577 15.1667 25.9827C15.625 25.4993 16.225 25.241 16.85 25.2743C17.4667 25.3077 18.05 25.6327 18.4417 26.1577L19.2917 27.2827C19.5 27.5577 19.4417 27.9494 19.1667 28.1577C19.0417 28.2494 18.9084 28.2827 18.7834 28.2827Z" fill="#645050"/>
<path d="M23.3333 16.459H16.6666C16.325 16.459 16.0416 16.1757 16.0416 15.834C16.0416 15.4923 16.325 15.209 16.6666 15.209H23.3333C23.675 15.209 23.9583 15.4923 23.9583 15.834C23.9583 16.1757 23.675 16.459 23.3333 16.459Z" fill="#645050"/>
<path d="M22.5 19.791H17.5C17.1583 19.791 16.875 19.5077 16.875 19.166C16.875 18.8243 17.1583 18.541 17.5 18.541H22.5C22.8417 18.541 23.125 18.8243 23.125 19.166C23.125 19.5077 22.8417 19.791 22.5 19.791Z" fill="#645050"/>
<path d="M22.35 28.1494C22.0334 28.1494 21.7334 28.0327 21.5167 27.816C21.2584 27.5577 21.1417 27.1827 21.2 26.791L21.3584 25.666C21.4 25.3743 21.5751 25.0244 21.7834 24.816L24.7334 21.866C25.1334 21.466 25.5251 21.2577 25.9501 21.216C26.4667 21.166 26.9834 21.3827 27.4667 21.866C27.95 22.3493 28.1667 22.8577 28.1167 23.3827C28.075 23.7994 27.8584 24.1993 27.4667 24.5993L24.5167 27.5494C24.3084 27.7577 23.9584 27.9327 23.6667 27.9744L22.5417 28.1327C22.475 28.141 22.4167 28.1494 22.35 28.1494ZM26.0917 22.4577C26.0834 22.4577 26.075 22.4577 26.0667 22.4577C25.95 22.466 25.7917 22.5743 25.6167 22.7493L22.6667 25.6994C22.6417 25.7244 22.6 25.8077 22.6 25.841L22.45 26.8827L23.4917 26.7327C23.525 26.7243 23.6084 26.6827 23.6334 26.6577L26.5834 23.7077C26.7584 23.5244 26.8667 23.3744 26.875 23.2577C26.8917 23.091 26.725 22.891 26.5834 22.7493C26.45 22.616 26.2584 22.4577 26.0917 22.4577Z" fill="#645050"/>
<path d="M26.6001 25.2078C26.5417 25.2078 26.4834 25.1995 26.4334 25.1828C25.3334 24.8745 24.4584 23.9995 24.1501 22.8995C24.0584 22.5661 24.2501 22.2244 24.5834 22.1244C24.9167 22.0328 25.2584 22.2245 25.3501 22.5578C25.5417 23.2411 26.0834 23.7828 26.7667 23.9744C27.1001 24.0661 27.2917 24.4161 27.2001 24.7495C27.1251 25.0245 26.8751 25.2078 26.6001 25.2078Z" fill="#645050"/>
</svg>
