<svg width="35" height="35" viewBox="0 0 35 35" fill="none" xmlns="http://www.w3.org/2000/svg">
<path d="M17.4998 33.1769C8.85192 33.1769 1.82275 26.1478 1.82275 17.4998C1.82275 8.85192 8.85192 1.82275 17.4998 1.82275C26.1478 1.82275 33.1769 8.85192 33.1769 17.4998C33.1769 26.1478 26.1478 33.1769 17.4998 33.1769ZM17.4998 4.01025C10.0623 4.01025 4.01025 10.0623 4.01025 17.4998C4.01025 24.9373 10.0623 30.9894 17.4998 30.9894C24.9373 30.9894 30.9894 24.9373 30.9894 17.4998C30.9894 10.0623 24.9373 4.01025 17.4998 4.01025Z" fill="#787F8A"/>
<path d="M23.3332 18.5938H11.6665C11.0686 18.5938 10.5728 18.0979 10.5728 17.5C10.5728 16.9021 11.0686 16.4062 11.6665 16.4062H23.3332C23.9311 16.4062 24.4269 16.9021 24.4269 17.5C24.4269 18.0979 23.9311 18.5938 23.3332 18.5938Z" fill="#787F8A"/>
<path d="M17.5 24.4269C16.9021 24.4269 16.4062 23.9311 16.4062 23.3332V11.6665C16.4062 11.0686 16.9021 10.5728 17.5 10.5728C18.0979 10.5728 18.5938 11.0686 18.5938 11.6665V23.3332C18.5938 23.9311 18.0979 24.4269 17.5 24.4269Z" fill="#787F8A"/>
</svg>
