<svg width="96" height="96" viewBox="0 0 96 96" fill="none" xmlns="http://www.w3.org/2000/svg">
<circle cx="48" cy="48" r="47.4" fill="#FEF4F4" stroke="#F9C9C9" stroke-width="1.2"/>
<path d="M54.4 65.1998H41.6C34.208 65.1998 32.832 61.7598 32.48 58.4158L31.28 45.5998C31.104 43.9198 31.056 41.4398 32.72 39.5838C34.16 37.9838 36.544 37.2158 40 37.2158H56C59.472 37.2158 61.856 37.9998 63.28 39.5838C64.944 41.4398 64.896 43.9198 64.72 45.6158L63.52 58.3998C63.168 61.7598 61.792 65.1998 54.4 65.1998ZM40 39.5998C37.296 39.5998 35.44 40.1278 34.496 41.1838C33.712 42.0478 33.456 43.3758 33.664 45.3598L34.864 58.1758C35.136 60.7038 35.824 62.7998 41.6 62.7998H54.4C60.16 62.7998 60.864 60.7038 61.136 58.1598L62.336 45.3758C62.544 43.3758 62.288 42.0478 61.504 41.1838C60.56 40.1278 58.704 39.5998 56 39.5998H40Z" fill="#645050"/>
<path d="M54.4 39.5998C53.744 39.5998 53.2 39.0558 53.2 38.3998V37.1198C53.2 34.2718 53.2 33.1998 49.28 33.1998H46.72C42.8 33.1998 42.8 34.2718 42.8 37.1198V38.3998C42.8 39.0558 42.256 39.5998 41.6 39.5998C40.944 39.5998 40.4 39.0558 40.4 38.3998V37.1198C40.4 34.3038 40.4 30.7998 46.72 30.7998H49.28C55.6 30.7998 55.6 34.3038 55.6 37.1198V38.3998C55.6 39.0558 55.056 39.5998 54.4 39.5998Z" fill="#645050"/>
<path d="M48 55.5998C43.6 55.5998 43.6 52.8798 43.6 51.2478V49.5998C43.6 47.3438 44.144 46.7998 46.4 46.7998H49.6C51.856 46.7998 52.4 47.3438 52.4 49.5998V51.1998C52.4 52.8638 52.4 55.5998 48 55.5998ZM46 49.1998C46 49.3278 46 49.4718 46 49.5998V51.2478C46 52.8958 46 53.1998 48 53.1998C50 53.1998 50 52.9438 50 51.2318V49.5998C50 49.4718 50 49.3278 50 49.1998C49.872 49.1998 49.728 49.1998 49.6 49.1998H46.4C46.272 49.1998 46.128 49.1998 46 49.1998Z" fill="#645050"/>
<path d="M51.2 52.4322C50.608 52.4322 50.08 51.9842 50.016 51.3762C49.936 50.7202 50.4 50.1122 51.056 50.0322C55.28 49.5042 59.328 47.9042 62.736 45.4242C63.264 45.0242 64.016 45.1522 64.416 45.6962C64.8 46.2242 64.688 46.9762 64.144 47.3762C60.4 50.0962 55.984 51.8402 51.344 52.4322C51.296 52.4322 51.248 52.4322 51.2 52.4322Z" fill="#645050"/>
<path d="M44.8 52.4481C44.752 52.4481 44.704 52.4481 44.656 52.4481C40.272 51.9521 36 50.3521 32.304 47.8241C31.76 47.4561 31.616 46.7041 31.984 46.1601C32.352 45.6161 33.104 45.4721 33.648 45.8401C37.024 48.1441 40.912 49.6001 44.912 50.0641C45.568 50.1441 46.048 50.7361 45.968 51.3921C45.92 52.0001 45.408 52.4481 44.8 52.4481Z" fill="#645050"/>
</svg>
