<svg width="32" height="32" viewBox="0 0 32 32" fill="none" xmlns="http://www.w3.org/2000/svg">
<path d="M16.2663 23.1734C15.3329 23.1734 14.3863 22.8134 13.6796 22.1067C12.9863 21.4134 12.5996 20.4934 12.5996 19.5201C12.5996 18.5468 12.9863 17.6134 13.6796 16.9334L15.5596 15.0534C15.9462 14.6667 16.5862 14.6667 16.9729 15.0534C17.3596 15.4401 17.3596 16.0801 16.9729 16.4667L15.0929 18.3467C14.7729 18.6667 14.5996 19.0801 14.5996 19.5201C14.5996 19.9601 14.7729 20.3867 15.0929 20.6934C15.7463 21.3467 16.7996 21.3467 17.453 20.6934L20.4129 17.7334C22.1063 16.04 22.1063 13.2934 20.4129 11.6001C18.7196 9.90675 15.973 9.90675 14.2796 11.6001L11.0529 14.8267C10.3729 15.5067 9.99959 16.4001 9.99959 17.3467C9.99959 18.2934 10.3729 19.2001 11.0529 19.8667C11.4396 20.2534 11.4396 20.8934 11.0529 21.2801C10.6662 21.6667 10.0262 21.6667 9.63957 21.2801C8.58623 20.2267 8.01294 18.8267 8.01294 17.3334C8.01294 15.8401 8.58623 14.4401 9.63957 13.3867L12.8663 10.1601C15.333 7.69339 19.3596 7.69339 21.8263 10.1601C24.2929 12.6267 24.2929 16.6534 21.8263 19.1201L18.8663 22.0801C18.1463 22.8134 17.2129 23.1734 16.2663 23.1734Z" fill="#957979"/>
<path d="M20.0001 30.3332H12.0001C4.76008 30.3332 1.66675 27.2398 1.66675 19.9998V11.9998C1.66675 4.75984 4.76008 1.6665 12.0001 1.6665H20.0001C27.2401 1.6665 30.3334 4.75984 30.3334 11.9998V19.9998C30.3334 27.2398 27.2401 30.3332 20.0001 30.3332ZM12.0001 3.6665C5.85341 3.6665 3.66675 5.85317 3.66675 11.9998V19.9998C3.66675 26.1465 5.85341 28.3332 12.0001 28.3332H20.0001C26.1467 28.3332 28.3334 26.1465 28.3334 19.9998V11.9998C28.3334 5.85317 26.1467 3.6665 20.0001 3.6665H12.0001Z" fill="#957979"/>
</svg>
